<?xml version="1.0" standalone="no"?>
<!DOCTYPE svg PUBLIC "-//W3C//DTD SVG 1.1//EN" "http://www.w3.org/Graphics/SVG/1.1/DTD/svg11.dtd" >
<svg xmlns="http://www.w3.org/2000/svg" xmlns:xlink="http://www.w3.org/1999/xlink" version="1.1">
<metadata>
Created by FontForge 20161116 at Thu Aug 28 23:56:04 2014
 By Jimmy Wärting
Copyright \(c\) 2014 by . All rights reserved.
</metadata>
<defs>
<font id="Voga-Medium" horiz-adv-x="418" >
  <font-face 
    font-family="Voga"
    font-weight="500"
    font-stretch="normal"
    units-per-em="1000"
    panose-1="2 0 6 6 9 0 0 2 0 4"
    ascent="845"
    descent="-155"
    x-height="500"
    cap-height="700"
    bbox="-85 -155 839 909"
    underline-thickness="50"
    underline-position="-100"
    stemh="10"
    stemv="80"
    unicode-range="U+0020-FB02"
  />
<missing-glyph horiz-adv-x="125" 
 />
    <glyph glyph-name="fi" unicode="fi" horiz-adv-x="426" 
d="M202 620c0 25 20 45 49 45c-13 20 -35 30 -59 30c-33 0 -50 -26 -50 -85v-110h80v-10h-80v-480h40v-10h-160v10h40v480h-40v10h40v70c0 103 64 135 130 135c54 0 100 -38 100 -85c0 -25 -20 -45 -45 -45s-45 20 -45 45zM277 500h-30v-10h40v-480h-40v-10h160v10h-40v570
h-10c0 -44 -36 -80 -80 -80z" />
    <glyph glyph-name="fl" unicode="fl" horiz-adv-x="417" 
d="M238 0v10h40v685h-83c-29 0 -53 -51 -53 -113v-82h85v-10h-85v-480h40v-10h-160v10h40v480h-40v10h40v82c0 68 60 123 133 123h163v-695h40v-10h-160z" />
    <glyph glyph-name=".notdef" horiz-adv-x="125" 
 />
    <glyph glyph-name="B" unicode="B" horiz-adv-x="413" 
d="M30 10h40v680h-40v10h160c108 0 180 -72 180 -160v-20c0 -94 -81 -137 -150 -155c69 -18 160 -61 160 -155v-50c0 -88 -72 -160 -180 -160h-170v10zM300 160v50c0 89 -55 150 -110 150h-40v-350h50c55 0 100 67 100 150zM290 520v20c0 83 -45 150 -100 150h-40v-320h40
c55 0 100 61 100 150z" />
    <glyph glyph-name="O" unicode="O" 
d="M289 150v400c0 83 -30 150 -80 150s-80 -67 -80 -150v-400c0 -83 30 -150 80 -150s80 67 80 150zM49 150v400c0 88 67 160 160 160s160 -72 160 -160v-400c0 -88 -67 -160 -160 -160s-160 72 -160 160z" />
    <glyph glyph-name="D" unicode="D" 
d="M30 10h40v680h-40v10h160c108 0 180 -72 180 -160v-380c0 -88 -72 -160 -180 -160h-160v10zM290 160v380c0 83 -45 150 -100 150h-40v-680h40c55 0 100 67 100 150z" />
    <glyph glyph-name="I" unicode="I" horiz-adv-x="220" 
d="M30 700h160v-10h-40v-680h40v-10h-160v10h40v680h-40v10z" />
    <glyph glyph-name="H" unicode="H" horiz-adv-x="440" 
d="M250 700h160v-10h-40v-680h40v-10h-160v10h40v335h-140v-335h40v-10h-160v10h40v680h-40v10h160v-10h-40v-335h140v335h-40v10z" />
    <glyph glyph-name="Q" unicode="Q" 
d="M196 -137c-62 36 -112 35 -112 -13h-10c0 70 42 127 97 144c-73 16 -122 80 -122 156v400c0 88 67 160 160 160s160 -72 160 -160v-400c0 -88 -67 -160 -160 -160c-47 0 -86 -28 -108 -70c28 28 73 34 120 7c64 -37 112 -34 112 13h10c0 -76 -70 -121 -147 -77zM209 0
c50 0 80 67 80 150v400c0 83 -30 150 -80 150s-80 -67 -80 -150v-400c0 -81 30 -150 80 -150z" />
    <glyph glyph-name="U" unicode="U" horiz-adv-x="405" 
d="M342 660v-510c0 -88 -54 -160 -120 -160c-93 0 -160 72 -160 160v540h-40v10h160v-10h-40v-540c0 -83 30 -150 80 -150c61 0 110 67 110 150v540h-40v10h95v-10c-32 0 -45 -13 -45 -30z" />
    <glyph glyph-name="T" unicode="T" horiz-adv-x="392" 
d="M16 700h360v-140h-10c0 72 -29 130 -65 130h-65v-680h40v-10h-160v10h40v680h-65c-36 0 -65 -58 -65 -130h-10v140z" />
    <glyph glyph-name="A" unicode="A" horiz-adv-x="400" 
d="M-6 0v10c32 0 51 15 56 38l140 662h16l154 -700h40v-10h-162v10h40l-42 195h-143l-41 -195h38v-10h-96zM163 533l-68 -318h139z" />
    <glyph glyph-name="P" unicode="P" horiz-adv-x="396" 
d="M190 300h-40v-290h40v-10h-160v10h40v680h-40v10h160c108 0 180 -72 180 -160v-80c0 -88 -72 -160 -180 -160zM190 690h-40v-380h40c55 0 100 67 100 150v80c0 83 -45 150 -100 150z" />
    <glyph glyph-name="E" unicode="E" horiz-adv-x="356" 
d="M320 700v-140h-10c0 72 -29 130 -65 130h-95v-335h60c22 0 40 36 40 80h10v-170h-10c0 44 -18 80 -40 80h-60v-335h95c36 0 65 58 65 130h10v-140h-290v10h40v680h-40v10h290z" />
    <glyph glyph-name="L" unicode="L" horiz-adv-x="337" 
d="M320 0h-290v10h40v680h-40v10h160v-10h-40v-680h95c36 0 65 58 65 130h10v-140z" />
    <glyph glyph-name="C" unicode="C" horiz-adv-x="361" 
d="M319 150h10v-150h-10c0 24 -12 36 -26 36c-22 -28 -52 -46 -94 -46c-83 0 -150 72 -150 160v400c0 88 67 160 150 160c42 0 72 -17 94 -46c14 0 26 12 26 36h10v-150h-10c0 86 -51 150 -110 150c-50 0 -80 -67 -80 -150v-400c0 -83 30 -150 80 -150c59 0 110 64 110 150z
" />
    <glyph glyph-name="V" unicode="V" horiz-adv-x="400" 
d="M237 167l111 523h-40v10h98v-10c-32 0 -51 -15 -56 -38l-140 -662h-16l-154 700h-40v10h163v-10h-41z" />
    <glyph glyph-name="F" unicode="F" horiz-adv-x="340" 
d="M190 10v-10h-160v10h40v680h-40v10h290v-140h-10c0 72 -29 130 -65 130h-95v-335h60c22 0 40 36 40 80h10v-170h-10c0 44 -18 80 -40 80h-60v-335h40z" />
    <glyph glyph-name="W" unicode="W" horiz-adv-x="560" 
d="M397 167l111 523h-40v10h98v-10c-32 0 -51 -15 -56 -38l-140 -662h-16l-74 333l-70 -333h-16l-154 700h-40v10h406v-10c-32 0 -51 -15 -56 -38l-30 -139zM237 167l38 180l-75 343h-78zM348 690h-66l33 -153z" />
    <glyph glyph-name="X" unicode="X" horiz-adv-x="381" 
d="M268 12l-100 289l-112 -291h38v-10h-98v10c37 0 57 19 64 37l103 269l-127 372h-40v12h164v-12h-40l90 -263l103 265h-38v10h98v-10c-37 0 -57 -19 -64 -37l-94 -242l137 -399h41v-12h-164v12h39z" />
    <glyph glyph-name="G" unicode="G" horiz-adv-x="402" 
d="M349 339v-287c-71 0 -92 -62 -150 -62c-83 0 -150 72 -150 160v400c0 88 67 160 150 160c42 0 72 -17 94 -46c14 0 26 12 26 36h10v-150h-10c0 86 -51 150 -110 150c-50 0 -80 -67 -80 -150v-400c0 -83 31 -150 70 -150s70 67 70 150v189h-40v10h160v-10h-40z" />
    <glyph glyph-name="N" unicode="N" horiz-adv-x="394" 
d="M25 700h107l186 -498v488h-40v10h95v-10c-32 0 -45 -13 -45 -30v-660h-16l-232 623v-613h40v-10h-95v10c32 0 45 13 45 30v620c0 17 -13 30 -45 30v10z" />
    <glyph glyph-name="K" unicode="K" horiz-adv-x="407" 
d="M30 700h160v-10h-40v-355l188 355h-37v10h98v-10c-44 0 -57 -14 -67 -33l-99 -187l148 -460h40v-10h-159v10h39l-119 365l-32 -60v-305h40v-10h-160v10h40v680h-40v10z" />
    <glyph glyph-name="J" unicode="J" horiz-adv-x="232" 
d="M170 690v-600c0 -94 -76 -170 -170 -170v10c50 0 90 72 90 160v600h-40v10h160v-10h-40z" />
    <glyph glyph-name="Z" unicode="Z" horiz-adv-x="348" 
d="M316 0h-294l217 690h-132c-36 0 -65 -58 -65 -130h-10v140h294l-217 -690h132c36 0 65 58 65 130h10v-140z" />
    <glyph glyph-name="Y" unicode="Y" horiz-adv-x="389" 
d="M114 10h40v304l-107 376h-40v10h160v-10h-40l102 -360l108 360h-39v10h98v-10c-35 0 -54 -17 -60 -37l-102 -340v-303h40v-10h-160v10z" />
    <glyph glyph-name="M" unicode="M" horiz-adv-x="531" 
d="M25 700h118l128 -532l110 532h120v-10h-40v-680h40v-10h-160v10h40v641l-135 -651h-16l-150 622v-612h40v-10h-95v10c32 0 45 13 45 30v620c0 17 -13 30 -45 30v10z" />
    <glyph glyph-name="S" unicode="S" horiz-adv-x="361" 
d="M36 0v160h10c0 -87 58 -157 124 -157c54 0 92 56 92 127c0 185 -226 200 -226 410c0 94 50 170 139 170c46 0 79 -18 102 -46c15 0 27 12 27 36h10v-150h-10c0 81 -53 147 -114 147c-54 0 -82 -46 -82 -117c0 -187 226 -202 226 -410c0 -99 -55 -180 -149 -180
c-54 0 -93 23 -118 60c-11 -4 -21 -18 -21 -50h-10z" />
    <glyph glyph-name="a" unicode="a" horiz-adv-x="343" 
d="M46 420c0 47 50 85 110 85c66 0 130 -38 130 -135v-310c0 -19 9 -34 20 -34s20 15 20 34h10c0 -36 -29 -65 -65 -65c-29 0 -53 18 -62 43c-9 -21 -29 -43 -70 -43c-58 0 -113 45 -113 105v34c0 56 72 105 72 105l108 73v98c0 59 -17 85 -50 85c-25 0 -54 -10 -69 -30
c29 0 49 -20 49 -45s-20 -45 -45 -45s-45 20 -45 45zM206 61v237l-72 -50c-21 -14 -28 -47 -28 -114v-74c0 -22 8 -55 40 -55c25 0 57 22 60 56z" />
    <glyph glyph-name="o" unicode="o" horiz-adv-x="340" 
d="M40 130v240c0 95 64 135 130 135s130 -40 130 -135v-240c0 -95 -64 -135 -130 -135s-130 40 -130 135zM220 130v240c0 89 -17 125 -50 125s-50 -36 -50 -125v-240c0 -89 17 -125 50 -125s50 36 50 125z" />
    <glyph glyph-name="e" unicode="e" horiz-adv-x="334" 
d="M120 254v-164c0 -59 27 -85 60 -85c40 0 100 29 100 125v23h10v-23c0 -90 -48 -135 -120 -135c-66 0 -130 40 -130 135v240c0 95 64 135 130 135s130 -40 130 -135v-116h-180zM120 370v-106h100v106c0 89 -17 125 -50 125s-50 -36 -50 -125z" />
    <glyph glyph-name="c" unicode="c" horiz-adv-x="308" 
d="M190 420c0 25 20 45 49 45c-13 20 -34 30 -59 30c-33 0 -60 -26 -60 -85v-320c0 -59 27 -85 60 -85c39 0 90 24 90 95v33h10v-33c0 -67 -45 -105 -100 -105c-66 0 -140 32 -140 135v240c0 103 74 135 140 135c53 0 100 -38 100 -85c0 -25 -20 -45 -45 -45s-45 20 -45 45z
" />
    <glyph glyph-name="b" unicode="b" horiz-adv-x="358" 
d="M137 430v-360c0 -38 32 -65 60 -65c22 0 40 18 40 50v390c0 32 -18 50 -40 50c-28 0 -60 -27 -60 -65zM137 32v-32h-120v10h40v680h-40v10h120v-232c13 22 34 37 70 37c55 0 110 -37 110 -105v-300c0 -68 -55 -105 -110 -105c-36 0 -57 15 -70 37z" />
    <glyph glyph-name="d" unicode="d" horiz-adv-x="358" 
d="M221 70v360c0 38 -32 65 -60 65c-22 0 -40 -18 -40 -50v-390c0 -32 18 -50 40 -50c28 0 60 27 60 65zM221 0v32c-13 -22 -34 -37 -70 -37c-55 0 -110 37 -110 105v300c0 68 55 105 110 105c36 0 57 -15 70 -37v222h-40v10h120v-690h40v-10h-120z" />
    <glyph glyph-name="p" unicode="p" horiz-adv-x="358" 
d="M137 430v-360c0 -38 32 -65 60 -65c22 0 40 18 40 50v390c0 32 -18 50 -40 50c-28 0 -60 -27 -60 -65zM137 500v-32c13 22 34 37 70 37c55 0 110 -37 110 -105v-300c0 -68 -55 -105 -110 -105c-36 0 -57 15 -70 37v-177h40v-10h-160v10h40v635h-40v10h120z" />
    <glyph glyph-name="q" unicode="q" horiz-adv-x="358" 
d="M221 70v360c0 38 -32 65 -60 65c-22 0 -40 -18 -40 -50v-390c0 -32 18 -50 40 -50c28 0 60 27 60 65zM221 468v32h120v-10h-40v-635h40v-10h-160v10h40v177c-13 -22 -34 -37 -70 -37c-55 0 -110 37 -110 105v300c0 68 55 105 110 105c36 0 57 -15 70 -37z" />
    <glyph glyph-name="l" unicode="l" horiz-adv-x="198" 
d="M19 700h120v-690h40v-10h-160v10h40v680h-40v10z" />
    <glyph glyph-name="u" unicode="u" horiz-adv-x="372" 
d="M235 83v407h-40v10h120v-490h40v-10h-120v47c-13 -22 -49 -52 -90 -52c-64 0 -90 37 -90 105v390h-40v10h120v-445c0 -26 10 -44 30 -44c28 0 70 37 70 72z" />
    <glyph glyph-name="f" unicode="f" horiz-adv-x="235" 
d="M202 620c0 25 20 45 49 45c-13 20 -35 30 -59 30c-33 0 -50 -26 -50 -85v-110h80v-10h-80v-480h40v-10h-160v10h40v480h-40v10h40v70c0 103 64 135 130 135c54 0 100 -38 100 -85c0 -25 -20 -45 -45 -45s-45 20 -45 45z" />
    <glyph glyph-name="i" unicode="i" horiz-adv-x="203" 
d="M24 10v-10h160v10h-40v490h-120v-10h40v-480h-40zM54 620c0 28 22 50 50 50s50 -22 50 -50s-22 -50 -50 -50s-50 22 -50 50z" />
    <glyph glyph-name="h" unicode="h" horiz-adv-x="372" 
d="M237 10v435c0 32 -18 50 -40 50c-28 0 -60 -27 -60 -65v-420h40v-10h-160v10h40v680h-40v10h120v-232c13 22 34 37 70 37c55 0 110 -37 110 -105v-390h40v-10h-160v10h40z" />
    <glyph glyph-name="n" unicode="n" horiz-adv-x="377" 
d="M142 417v-407h40v-10h-160v10h40v480h-40v10h120v-47c13 22 49 52 90 52c64 0 90 -37 90 -105v-390h40v-10h-160v10h40v435c0 26 -10 44 -30 44c-28 0 -70 -37 -70 -72z" />
    <glyph glyph-name="m" unicode="m" horiz-adv-x="557" 
d="M142 417v-407h40v-10h-160v10h40v480h-40v10h120v-47c13 22 49 52 90 52c49 0 75 -22 85 -61c17 35 58 61 95 61c64 0 90 -37 90 -105v-390h40v-10h-160v10h40v435c0 26 -10 44 -30 44c-28 0 -70 -37 -70 -72v-407h40v-10h-160v10h40v435c0 26 -10 44 -30 44
c-28 0 -70 -37 -70 -72z" />
    <glyph glyph-name="k" unicode="k" horiz-adv-x="355" 
d="M208 0v10h37l-87 291l-21 -28v-263h40v-10h-160v10h40v680h-40v10h120v-410l148 200h-33v10h95v-10c-37 0 -58 -12 -72 -31l-60 -81l109 -368h39v-10h-155z" />
    <glyph glyph-name="j" unicode="j" horiz-adv-x="199" 
d="M5 -70c0 -25 -20 -45 -49 -45c13 -20 35 -30 59 -30c33 0 50 26 50 85v550h-40v10h120v-520c0 -103 -64 -135 -130 -135c-54 0 -100 38 -100 85c0 25 20 45 45 45s45 -20 45 -45zM55 620c0 28 22 50 50 50s50 -22 50 -50s-22 -50 -50 -50s-50 22 -50 50z" />
    <glyph glyph-name="r" unicode="r" horiz-adv-x="289" 
d="M192 440c0 24 19 44 43 45c-8 7 -20 10 -33 10c-32 0 -60 -26 -60 -65v-420h40v-10h-160v10h40v480h-40v10h120v-31c11 20 32 36 69 36c36 0 71 -24 71 -65c0 -25 -20 -45 -45 -45s-45 20 -45 45z" />
    <glyph glyph-name="v" unicode="v" horiz-adv-x="329" 
d="M0 490v10h160v-10h-41l81 -338l77 338h-39v10h97v-10c-32 0 -50 -12 -56 -38l-105 -457h-16l-118 495h-40z" />
    <glyph glyph-name="w" unicode="w" horiz-adv-x="487" 
d="M0 490v10h318v-10h-41l81 -338l77 338h-39v10h97v-10c-32 0 -50 -12 -56 -38l-105 -457h-16l-73 303l-69 -303h-16l-118 495h-40zM119 490l81 -338l38 168l-40 170h-79z" />
    <glyph glyph-name="z" unicode="z" horiz-adv-x="323" 
d="M24 10l186 480h-101c-36 0 -65 -58 -65 -130h-10v140h260v-10l-186 -480h111c36 0 65 58 65 130h10v-140h-270v10z" />
    <glyph glyph-name="g" unicode="g" horiz-adv-x="375" 
d="M223 310v60c0 93 -17 125 -50 125s-50 -32 -50 -125v-60c0 -93 17 -125 50 -125s50 32 50 125zM263 -45v130h-130c-44 0 -90 18 -90 50c0 29 50 46 88 49c-40 17 -88 51 -88 126v60c0 101 64 135 130 135c34 0 72 -10 93 -31c14 17 37 31 66 31c17 0 30 -13 30 -30
s-13 -30 -30 -30s-30 13 -30 36c-11 -4 -19 -10 -27 -17c17 -22 28 -49 28 -94v-60c0 -101 -62 -135 -130 -135h-20c-11 0 -30 -8 -30 -40s19 -40 30 -40h190v-120c0 -82 -72 -130 -160 -130s-160 49 -160 110s72 110 160 110v-10c-47 0 -80 -41 -80 -100s33 -100 80 -100
s80 41 80 100z" />
    <glyph glyph-name="y" unicode="y" horiz-adv-x="329" 
d="M1 490v10h160v-10h-41l81 -338l77 338h-39v10h97v-10c-32 0 -50 -12 -56 -38l-128 -556c-5 -20 -17 -51 -50 -51c-25 0 -45 20 -45 45s20 45 45 45c19 0 35 -12 42 -29l18 77l-121 507h-40z" />
    <glyph glyph-name="x" unicode="x" horiz-adv-x="332" 
d="M112 490l74 -188l78 188h-38v10h98v-10c-32 0 -54 -12 -63 -34l-70 -168l110 -278h42v-10h-165v10h39l-76 204l-84 -204h38v-10h-98v10c32 0 54 12 63 34l76 184l-98 262h-41v10h155v-10h-40z" />
    <glyph glyph-name="s" unicode="s" horiz-adv-x="308" 
d="M156 -5c-70 0 -127 43 -127 95c0 25 21 45 45 45c25 0 45 -20 45 -45s-20 -45 -49 -45c17 -25 50 -40 80 -40c46 0 84 37 84 95c0 120 -200 116 -200 280c0 69 54 125 120 125c63 0 110 -38 110 -85c0 -25 -21 -45 -45 -45c-25 0 -45 20 -45 45s20 45 49 45
c-11 18 -34 30 -63 30c-42 0 -76 -33 -76 -85c0 -120 200 -116 200 -280c0 -75 -57 -135 -128 -135z" />
    <glyph glyph-name="space" unicode=" " horiz-adv-x="169" 
 />
    <glyph glyph-name="dollar" unicode="$" horiz-adv-x="366" 
d="M179 710v80h10v-81c70 -5 135 -58 135 -124c0 -25 -21 -45 -45 -45c-25 0 -45 20 -45 45s20 45 45 45c3 0 9 -1 11 -2c-18 42 -57 69 -96 69h-5v-276c72 -61 155 -125 155 -251c0 -97 -65 -177 -155 -180v-80h-10v80c-81 3 -155 61 -155 135c0 25 21 45 45 45
c25 0 45 -20 45 -45s-20 -45 -45 -45c-3 0 -6 0 -9 1c22 -47 70 -78 114 -78h5v296c-70 57 -145 119 -145 241c0 94 60 170 145 170zM294 130c0 72 -50 116 -105 161v-287c59 7 105 60 105 126zM84 580c0 -65 43 -107 95 -151v267c-54 -8 -95 -56 -95 -116z" />
    <glyph glyph-name="period" unicode="." horiz-adv-x="168" 
d="M34 40c0 28 22 50 50 50s50 -22 50 -50s-22 -50 -50 -50s-50 22 -50 50z" />
    <glyph glyph-name="comma" unicode="," horiz-adv-x="170" 
d="M34 40c0 28 22 51 50 51c25 0 46 -19 50 -44c1 -5 1 -11 1 -16c0 -55 -45 -101 -90 -101v10c22 0 54 24 60 55c-6 -3 -14 -5 -21 -5c-28 0 -50 22 -50 50z" />
    <glyph glyph-name="semicolon" unicode=";" horiz-adv-x="196" 
d="M47 40c0 28 22 51 50 51c25 0 46 -19 50 -44c1 -5 1 -11 1 -16c0 -55 -45 -101 -90 -101v10c22 0 54 24 60 55c-6 -3 -14 -5 -21 -5c-28 0 -50 22 -50 50zM47 390c0 28 22 50 50 50s50 -22 50 -50s-22 -50 -50 -50s-50 22 -50 50z" />
    <glyph glyph-name="colon" unicode=":" horiz-adv-x="194" 
d="M47 40c0 28 22 50 50 50s50 -22 50 -50s-22 -50 -50 -50s-50 22 -50 50zM47 390c0 28 22 50 50 50s50 -22 50 -50s-22 -50 -50 -50s-50 22 -50 50z" />
    <glyph glyph-name="exclam" unicode="!" horiz-adv-x="176" 
d="M38 40c0 28 22 50 50 50s50 -22 50 -50s-22 -50 -50 -50s-50 22 -50 50zM138 640c0 -80 -45 -260 -45 -510h-10c0 250 -45 430 -45 510c0 48 22 70 50 70s50 -22 50 -70z" />
    <glyph glyph-name="question" unicode="?" horiz-adv-x="346" 
d="M20 585c0 48 40 125 135 125c86 0 165 -63 165 -160v-90c0 -97 -85 -160 -175 -160v-170h-10v180h10c56 0 95 51 95 110v170c0 59 -32 110 -85 110c-62 0 -89 -35 -99 -70c34 0 54 -20 54 -45s-20 -45 -45 -45s-45 20 -45 45zM90 40c0 28 22 50 50 50s50 -22 50 -50
s-22 -50 -50 -50s-50 22 -50 50z" />
    <glyph glyph-name="bar" unicode="|" horiz-adv-x="150" 
d="M50 -155v855h50v-855h-50z" />
    <glyph glyph-name="backslash" unicode="\" horiz-adv-x="246" 
d="M174 -155l-151 855h50l151 -855h-50z" />
    <glyph glyph-name="slash" unicode="/" horiz-adv-x="246" 
d="M223 700l-151 -855h-50l151 855h50z" />
    <glyph glyph-name="underscore" unicode="_" horiz-adv-x="300" 
d="M25 -50v30h250v-30h-250z" />
    <glyph glyph-name="hyphen" unicode="-" horiz-adv-x="344" 
d="M47 225v50h250v-50h-250z" />
    <glyph glyph-name="equal" unicode="=" horiz-adv-x="426" 
d="M48 265v50h330v-50h-330zM48 385v50h330v-50h-330z" />
    <glyph glyph-name="plus" unicode="+" horiz-adv-x="392" 
d="M31 325v50h140v140h50v-140h140v-50h-140v-140h-50v140h-140z" />
    <glyph glyph-name="questiondown" unicode="&#xbf;" horiz-adv-x="346" 
d="M326 45c0 -48 -40 -125 -135 -125c-86 0 -165 63 -165 160v90c0 97 85 160 175 160v170h10v-180h-10c-56 0 -95 -51 -95 -110v-170c0 -59 32 -110 85 -110c62 0 89 35 99 70c-34 0 -54 20 -54 45s20 45 45 45s45 -20 45 -45zM256 590c0 -28 -22 -50 -50 -50
s-50 22 -50 50s22 50 50 50s50 -22 50 -50z" />
    <glyph glyph-name="cent" unicode="&#xa2;" horiz-adv-x="315" 
d="M192 420c0 25 20 45 49 45c-13 20 -34 30 -59 30h-5v-490h5c39 0 90 24 90 95v33h10v-33c0 -67 -45 -105 -100 -105h-5v-80h-10v81c-62 4 -125 38 -125 134v240c0 95 63 130 125 134v81h10v-80h5c53 0 100 -38 100 -85c0 -25 -20 -45 -45 -45s-45 20 -45 45zM122 90
c0 -50 19 -76 45 -83v486c-26 -7 -45 -34 -45 -83v-320z" />
    <glyph glyph-name="numbersign" unicode="#" horiz-adv-x="622" 
d="M62 445v50h160l36 205h50l-36 -205h130l36 205h50l-36 -205h148v-50h-157l-34 -190h151v-50h-160l-36 -205h-50l36 205h-130l-36 -205h-50l36 205h-148v50h157l34 190h-151zM263 445l-34 -190h130l34 190h-130z" />
    <glyph glyph-name="bracketright" unicode="]" horiz-adv-x="202" 
d="M22 -126v10h50v866h-50v10h130v-886h-130z" />
    <glyph glyph-name="bracketleft" unicode="[" horiz-adv-x="202" 
d="M180 -116v-10h-130v886h130v-10h-50v-866h50z" />
    <glyph glyph-name="asterisk" unicode="*" horiz-adv-x="328" 
d="M199 587l-25 -15l25 -14l34 -3l52 -30l-20 -34l-52 30l-19 28l-25 14v-29l15 -30v-60h-40v60l15 30v29l-25 -14l-19 -28l-52 -30l-20 34l52 30l34 2l25 14l-25 15l-34 3l-52 30l20 34l52 -30l19 -28l25 -14v29l-15 30v60h40v-60l-15 -30v-30l25 15l19 28l52 30l20 -34
l-52 -30z" />
    <glyph glyph-name="less" unicode="&#x3c;" horiz-adv-x="387" 
d="M28 323v54l312 145v-53l-258 -119l258 -119v-53z" />
    <glyph glyph-name="greater" unicode="&#x3e;" horiz-adv-x="387" 
d="M359 377v-54l-312 -145v53l258 119l-258 119v53z" />
    <glyph glyph-name="exclamdown" unicode="&#xa1;" horiz-adv-x="176" 
d="M38 590c0 28 22 50 50 50s50 -22 50 -50s-22 -50 -50 -50s-50 22 -50 50zM138 -10c0 -48 -22 -70 -50 -70s-50 22 -50 70c0 80 45 260 45 510h10c0 -250 45 -430 45 -510z" />
    <glyph glyph-name="parenleft" unicode="(" horiz-adv-x="223" 
d="M216 -126c-94 0 -170 72 -170 160v566c0 88 76 160 170 160v-10c-50 0 -90 -67 -90 -150v-566c0 -83 40 -150 90 -150v-10z" />
    <glyph glyph-name="parenright" unicode=")" horiz-adv-x="223" 
d="M7 -126v10c50 0 90 67 90 150v566c0 83 -40 150 -90 150v10c94 0 170 -72 170 -160v-566c0 -88 -76 -160 -170 -160z" />
    <glyph glyph-name="braceleft" unicode="{" horiz-adv-x="264" 
d="M168 162v-128c0 -83 40 -150 90 -150v-10c-94 0 -170 72 -170 160v128c0 81 -40 150 -90 150v10c50 0 90 67 90 150v128c0 88 76 160 170 160v-10c-50 0 -90 -67 -90 -150v-128c0 -74 -54 -137 -127 -155c73 -18 127 -81 127 -155z" />
    <glyph glyph-name="braceright" unicode="}" horiz-adv-x="264" 
d="M96 34v128c0 74 54 137 127 155c-73 18 -127 81 -127 155v128c0 83 -40 150 -90 150v10c94 0 170 -72 170 -160v-128c0 -83 40 -150 90 -150v-10c-50 0 -90 -69 -90 -150v-128c0 -88 -76 -160 -170 -160v10c50 0 90 67 90 150z" />
    <glyph glyph-name="zero" unicode="0" horiz-adv-x="412" 
d="M46 150v400c0 88 67 160 160 160s160 -72 160 -160v-400c0 -88 -67 -160 -160 -160s-160 72 -160 160zM286 150v400c0 41 -8 79 -21 106l-110 -625c13 -20 30 -31 51 -31c50 0 80 67 80 150zM126 150c0 -42 7 -79 21 -106l109 626c-13 18 -30 30 -50 30
c-50 0 -80 -67 -80 -150v-400z" />
    <glyph glyph-name="yen" unicode="&#xa5;" horiz-adv-x="434" 
d="M47 284v30h125l-107 376h-40v10h157v-10h-37l102 -360l108 360h-37v10h96v-10c-35 0 -54 -17 -60 -37l-102 -339h125v-30h-125v-90h125v-30h-125v-154h40v-10h-160v10h40v154h-125v30h125v90h-125z" />
    <glyph glyph-name="mu" unicode="&#xb5;" horiz-adv-x="384" 
d="M141 500v-445c0 -32 18 -50 40 -50c28 0 60 27 60 65v420h-40v10h120v-490h40v-10h-120v32c-13 -22 -34 -37 -70 -37c-21 0 -42 5 -60 16v-26c0 -40 15 -63 15 -90c0 -32 -18 -50 -40 -50s-40 18 -40 50c0 27 15 50 15 90v505h-40v10h120z" />
    <glyph glyph-name="periodcentered" unicode="&#xb7;" horiz-adv-x="188" 
d="M44 250c0 28 22 50 50 50s50 -22 50 -50s-22 -50 -50 -50s-50 22 -50 50z" />
    <glyph glyph-name="brokenbar" unicode="&#xa6;" horiz-adv-x="160" 
d="M55 360v340h50v-340h-50zM55 -155v340h50v-340h-50z" />
    <glyph glyph-name="one" unicode="1" horiz-adv-x="242" 
d="M24 670v11l130 19h10v-690h60v-10h-200v10h60v668z" />
    <glyph glyph-name="two" unicode="2" horiz-adv-x="366" 
d="M23 0v40c208 388 230 458 230 530c0 79 -32 130 -85 130c-62 0 -89 -35 -99 -70c34 0 54 -20 54 -45s-20 -45 -45 -45c-24 0 -45 20 -45 45c0 47 40 125 135 125c86 0 165 -53 165 -160c0 -121 -70 -181 -270 -470h250v40h10v-120h-300z" />
    <glyph glyph-name="four" unicode="4" horiz-adv-x="396" 
d="M327 192h-20v-182h60v-10h-200v10h60v182h-220v10l290 508h10v-508h50v40h10v-95h-10c0 42 -13 45 -30 45zM18 202h209v366z" />
    <glyph glyph-name="seven" unicode="7" horiz-adv-x="334" 
d="M326 700v-60c-20 -38 -139 -282 -140 -640h-80c0 225 158 538 194 620h-274v-40h-10v120h310z" />
    <glyph glyph-name="eight" unicode="8" horiz-adv-x="411" 
d="M232 384c70 -50 148 -103 148 -229c0 -91 -74 -165 -175 -165s-175 74 -175 165c0 83 48 119 142 193c-58 45 -122 96 -122 202c0 88 65 160 155 160s155 -72 155 -160c0 -67 -52 -106 -128 -166zM180 341c-39 -32 -70 -100 -70 -186s37 -155 95 -155s95 69 95 155
c0 97 -55 137 -120 186zM223 391c39 32 57 85 57 159c0 83 -18 150 -75 150s-75 -67 -75 -150c0 -79 39 -118 93 -159z" />
    <glyph glyph-name="three" unicode="3" horiz-adv-x="385" 
d="M37 585c0 47 40 125 135 125c86 0 165 -63 165 -160v-35c0 -74 -68 -137 -132 -155c67 -18 142 -81 142 -155v-55c0 -97 -85 -160 -175 -160c-94 0 -145 78 -145 125c0 25 21 45 45 45c25 0 45 -20 45 -45s-20 -45 -52 -45c12 -35 43 -70 107 -70c56 0 95 51 95 110v95
c0 81 -50 150 -100 150h-50v10h50c50 0 90 67 90 150v75c0 59 -32 110 -85 110c-62 0 -89 -35 -99 -70c34 0 54 -20 54 -45s-20 -45 -45 -45s-45 20 -45 45z" />
    <glyph glyph-name="nine" unicode="9" horiz-adv-x="387" 
d="M268 338c-16 -40 -51 -68 -90 -68c-85 0 -150 72 -150 160v120c0 88 77 160 160 160s160 -72 160 -160v-159c0 -288 -197 -391 -270 -391v10c39 0 190 94 190 328zM268 390v200c0 43 -30 110 -80 110s-80 -67 -80 -110v-200c0 -43 18 -110 70 -110c50 0 90 49 90 110z
" />
    <glyph glyph-name="six" unicode="6" horiz-adv-x="387" 
d="M119 362c16 40 51 68 90 68c85 0 150 -72 150 -160v-120c0 -88 -77 -160 -160 -160s-160 72 -160 160v159c0 288 197 391 270 391v-10c-39 0 -190 -94 -190 -328zM119 310v-200c0 -43 30 -110 80 -110s80 67 80 110v200c0 43 -18 110 -70 110c-50 0 -90 -49 -90 -110z
" />
    <glyph glyph-name="five" unicode="5" horiz-adv-x="378" 
d="M346 275v-125c0 -88 -78 -160 -175 -160c-99 0 -145 78 -145 125c0 25 21 45 45 45c25 0 45 -20 45 -45s-20 -45 -45 -45h-7c12 -35 43 -70 107 -70c52 0 95 49 95 110v205c0 61 -38 110 -85 110c-89 0 -122 -77 -125 -115l-10 1l33 389h227v40h10v-120h-234l-21 -255
c19 37 57 70 120 70c91 0 165 -72 165 -160z" />
    <glyph glyph-name="acute" unicode="&#xb4;" horiz-adv-x="224" 
d="M60 543h-10l33 157h91z" />
    <glyph glyph-name="Eacute" unicode="&#xc9;" horiz-adv-x="356" 
d="M320 700v-140h-10c0 72 -29 130 -65 130h-95v-335h60c22 0 40 36 40 80h10v-170h-10c0 44 -18 80 -40 80h-60v-335h95c36 0 65 58 65 130h10v-140h-290v10h40v680h-40v10h290zM143 743h-10l33 157h91z" />
    <glyph glyph-name="Iacute" unicode="&#xcd;" horiz-adv-x="220" 
d="M30 700h160v-10h-40v-680h40v-10h-160v10h40v680h-40v10zM83 743h-10l33 157h91z" />
    <glyph glyph-name="Oacute" unicode="&#xd3;" 
d="M289 150v400c0 83 -30 150 -80 150s-80 -67 -80 -150v-400c0 -83 30 -150 80 -150s80 67 80 150zM49 150v400c0 88 67 160 160 160s160 -72 160 -160v-400c0 -88 -67 -160 -160 -160s-160 72 -160 160zM172 743h-10l33 157h91z" />
    <glyph glyph-name="Uacute" unicode="&#xda;" horiz-adv-x="405" 
d="M342 660v-510c0 -88 -54 -160 -120 -160c-93 0 -160 72 -160 160v540h-40v10h160v-10h-40v-540c0 -83 30 -150 80 -150c61 0 110 67 110 150v540h-40v10h95v-10c-32 0 -45 -13 -45 -30zM162 743h-10l33 157h91z" />
    <glyph glyph-name="Yacute" unicode="&#xdd;" horiz-adv-x="389" 
d="M114 10h40v304l-107 376h-40v10h160v-10h-40l102 -360l108 360h-39v10h98v-10c-35 0 -54 -17 -60 -37l-102 -340v-303h40v-10h-160v10zM154 743h-10l33 157h91z" />
    <glyph glyph-name="grave" unicode="`" horiz-adv-x="224" 
d="M174 543h-10l-114 157h91z" />
    <glyph glyph-name="Agrave" unicode="&#xc0;" horiz-adv-x="400" 
d="M-6 0v10c32 0 51 15 56 38l140 662h16l154 -700h40v-10h-162v10h40l-42 195h-143l-41 -195h38v-10h-96zM163 533l-68 -318h139zM238 743h-10l-114 157h91z" />
    <glyph glyph-name="Egrave" unicode="&#xc8;" horiz-adv-x="356" 
d="M320 700v-140h-10c0 72 -29 130 -65 130h-95v-335h60c22 0 40 36 40 80h10v-170h-10c0 44 -18 80 -40 80h-60v-335h95c36 0 65 58 65 130h10v-140h-290v10h40v680h-40v10h290zM227 743h-10l-114 157h91z" />
    <glyph glyph-name="Igrave" unicode="&#xcc;" horiz-adv-x="220" 
d="M147 743h-10l-114 157h91zM30 700h160v-10h-40v-680h40v-10h-160v10h40v680h-40v10z" />
    <glyph glyph-name="Ograve" unicode="&#xd2;" 
d="M256 743h-10l-114 157h91zM289 150v400c0 83 -30 150 -80 150s-80 -67 -80 -150v-400c0 -83 30 -150 80 -150s80 67 80 150zM49 150v400c0 88 67 160 160 160s160 -72 160 -160v-400c0 -88 -67 -160 -160 -160s-160 72 -160 160z" />
    <glyph glyph-name="Ugrave" unicode="&#xd9;" horiz-adv-x="405" 
d="M342 660v-510c0 -88 -54 -160 -120 -160c-93 0 -160 72 -160 160v540h-40v10h160v-10h-40v-540c0 -83 30 -150 80 -150c61 0 110 67 110 150v540h-40v10h95v-10c-32 0 -45 -13 -45 -30zM236 743h-10l-114 157h91z" />
    <glyph glyph-name="dieresis" unicode="&#xa8;" horiz-adv-x="330" 
d="M50 618c0 25 20 45 45 45s45 -20 45 -45s-20 -45 -45 -45s-45 20 -45 45zM190 618c0 25 20 45 45 45s45 -20 45 -45s-20 -45 -45 -45s-45 20 -45 45z" />
    <glyph glyph-name="Edieresis" unicode="&#xcb;" horiz-adv-x="356" 
d="M320 700v-140h-10c0 72 -29 130 -65 130h-95v-335h60c22 0 40 36 40 80h10v-170h-10c0 44 -18 80 -40 80h-60v-335h95c36 0 65 58 65 130h10v-140h-290v10h40v680h-40v10h290zM65 818c0 25 20 45 45 45s45 -20 45 -45s-20 -45 -45 -45s-45 20 -45 45zM205 818
c0 25 20 45 45 45s45 -20 45 -45s-20 -45 -45 -45s-45 20 -45 45z" />
    <glyph glyph-name="Adieresis" unicode="&#xc4;" horiz-adv-x="400" 
d="M-6 0v10c32 0 51 15 56 38l140 662h16l154 -700h40v-10h-162v10h40l-42 195h-143l-41 -195h38v-10h-96zM163 533l-68 -318h139zM82 818c0 25 20 45 45 45s45 -20 45 -45s-20 -45 -45 -45s-45 20 -45 45zM222 818c0 25 20 45 45 45s45 -20 45 -45s-20 -45 -45 -45
s-45 20 -45 45z" />
    <glyph glyph-name="Idieresis" unicode="&#xcf;" horiz-adv-x="220" 
d="M30 700h160v-10h-40v-680h40v-10h-160v10h40v680h-40v10zM-5 818c0 25 20 45 45 45s45 -20 45 -45s-20 -45 -45 -45s-45 20 -45 45zM135 818c0 25 20 45 45 45s45 -20 45 -45s-20 -45 -45 -45s-45 20 -45 45z" />
    <glyph glyph-name="Odieresis" unicode="&#xd6;" 
d="M289 150v400c0 83 -30 150 -80 150s-80 -67 -80 -150v-400c0 -83 30 -150 80 -150s80 67 80 150zM49 150v400c0 88 67 160 160 160s160 -72 160 -160v-400c0 -88 -67 -160 -160 -160s-160 72 -160 160zM94 818c0 25 20 45 45 45s45 -20 45 -45s-20 -45 -45 -45
s-45 20 -45 45zM234 818c0 25 20 45 45 45s45 -20 45 -45s-20 -45 -45 -45s-45 20 -45 45z" />
    <glyph glyph-name="Udieresis" unicode="&#xdc;" horiz-adv-x="405" 
d="M342 660v-510c0 -88 -54 -160 -120 -160c-93 0 -160 72 -160 160v540h-40v10h160v-10h-40v-540c0 -83 30 -150 80 -150c61 0 110 67 110 150v540h-40v10h95v-10c-32 0 -45 -13 -45 -30zM94 818c0 25 20 45 45 45s45 -20 45 -45s-20 -45 -45 -45s-45 20 -45 45zM234 818
c0 25 20 45 45 45s45 -20 45 -45s-20 -45 -45 -45s-45 20 -45 45z" />
    <glyph glyph-name="circumflex" unicode="&#x2c6;" horiz-adv-x="327" 
d="M60 543h-10l83 157h61l83 -157h-10l-104 94z" />
    <glyph glyph-name="Acircumflex" unicode="&#xc2;" horiz-adv-x="400" 
d="M-6 0v10c32 0 51 15 56 38l140 662h16l154 -700h40v-10h-162v10h40l-42 195h-143l-41 -195h38v-10h-96zM163 533l-68 -318h139zM94 743h-10l83 157h61l83 -157h-10l-104 94z" />
    <glyph glyph-name="Ecircumflex" unicode="&#xca;" horiz-adv-x="356" 
d="M320 700v-140h-10c0 72 -29 130 -65 130h-95v-335h60c22 0 40 36 40 80h10v-170h-10c0 44 -18 80 -40 80h-60v-335h95c36 0 65 58 65 130h10v-140h-290v10h40v680h-40v10h290zM80 743h-10l83 157h61l83 -157h-10l-104 94z" />
    <glyph glyph-name="Icircumflex" unicode="&#xce;" horiz-adv-x="220" 
d="M30 700h160v-10h-40v-680h40v-10h-160v10h40v680h-40v10zM7 743h-10l83 157h61l83 -157h-10l-104 94z" />
    <glyph glyph-name="Ucircumflex" unicode="&#xdb;" horiz-adv-x="405" 
d="M342 660v-510c0 -88 -54 -160 -120 -160c-93 0 -160 72 -160 160v540h-40v10h160v-10h-40v-540c0 -83 30 -150 80 -150c61 0 110 67 110 150v540h-40v10h95v-10c-32 0 -45 -13 -45 -30zM106 743h-10l83 157h61l83 -157h-10l-104 94z" />
    <glyph glyph-name="OE" unicode="&#x152;" horiz-adv-x="575" 
d="M289 690h-80c-50 0 -80 -67 -80 -150v-380c0 -83 30 -150 80 -150h80v680zM539 0h-330c-93 0 -160 72 -160 160v380c0 88 67 160 160 160h330v-140h-10c0 72 -29 130 -65 130h-95v-335h60c22 0 40 36 40 80h10v-170h-10c0 44 -18 80 -40 80h-60v-335h95
c36 0 65 58 65 130h10v-140z" />
    <glyph glyph-name="sterling" unicode="&#xa3;" horiz-adv-x="413" 
d="M28 0v80c53 0 95 53 95 140v146h-95v10h95v209c0 103 64 135 130 135c54 0 100 -38 100 -85c0 -25 -20 -45 -45 -45s-45 20 -45 45s20 45 49 45c-13 20 -35 30 -59 30c-33 0 -50 -26 -50 -85v-249h165v-10h-165v-146c0 -73 -46 -121 -108 -140h273v40h10v-120h-350z" />
    <glyph glyph-name="section" unicode="&#xa7;" horiz-adv-x="404" 
d="M206 -155c-70 0 -127 43 -127 95c0 25 21 45 45 45c25 0 45 -20 45 -45s-20 -45 -49 -45c17 -25 50 -40 80 -40c46 0 84 47 84 105c0 134 -263 208 -263 402c0 54 33 100 79 117c-18 31 -29 66 -29 106c0 69 54 125 120 125c63 0 110 -38 110 -85c0 -25 -21 -45 -45 -45
c-25 0 -45 20 -45 45s20 45 49 45c-11 18 -34 30 -63 30c-42 0 -76 -43 -76 -95c0 -134 263 -218 263 -402c0 -56 -32 -104 -77 -124c16 -30 27 -63 27 -99c0 -75 -57 -135 -128 -135zM334 183c0 102 -152 169 -225 281c-23 -17 -38 -47 -38 -82c0 -103 153 -176 225 -287
c23 19 38 51 38 88z" />
    <glyph glyph-name="Eth" unicode="&#xd0;" 
d="M30 345v10h40v335h-40v10h160c108 0 180 -72 180 -160v-380c0 -88 -72 -160 -180 -160h-160v10h40v335h-40zM290 160v380c0 83 -45 150 -100 150h-40v-335h90v-10h-90v-335h40c55 0 100 67 100 150z" />
    <glyph glyph-name="thorn" unicode="&#xfe;" horiz-adv-x="355" 
d="M134 430v-360c0 -38 32 -65 60 -65c22 0 40 18 40 50v390c0 32 -18 50 -40 50c-28 0 -60 -27 -60 -65zM134 700v-232c13 22 34 37 70 37c55 0 110 -37 110 -105v-300c0 -68 -55 -105 -110 -105c-36 0 -57 15 -70 37v-177h40v-10h-160v10h40v835h-40v10h120z" />
    <glyph glyph-name="Thorn" unicode="&#xde;" horiz-adv-x="396" 
d="M70 690h-40v10h160v-10h-40v-139h40c108 0 180 -72 180 -160v-80c0 -88 -72 -160 -180 -160h-40v-141h40v-10h-160v10h40v680zM190 541h-40v-380h40c55 0 100 67 100 150v80c0 83 -45 150 -100 150z" />
    <glyph glyph-name="dotlessi" unicode="&#x131;" horiz-adv-x="203" 
d="M24 0v10h40v480h-40v10h120v-490h40v-10h-160z" />
    <glyph glyph-name="Ydieresis" unicode="&#x178;" horiz-adv-x="389" 
d="M114 10h40v304l-107 376h-40v10h160v-10h-40l102 -360l108 360h-39v10h98v-10c-35 0 -54 -17 -60 -37l-102 -340v-303h40v-10h-160v10zM86 818c0 25 20 45 45 45s45 -20 45 -45s-20 -45 -45 -45s-45 20 -45 45zM226 818c0 25 20 45 45 45s45 -20 45 -45s-20 -45 -45 -45
s-45 20 -45 45z" />
    <glyph glyph-name="Euro" unicode="&#x20ac;" horiz-adv-x="397" 
d="M26 395v10h40v145c0 107 79 160 165 160c95 0 135 -78 135 -125c0 -25 -21 -45 -45 -45c-25 0 -45 20 -45 45s20 45 54 45c-10 35 -37 70 -99 70c-53 0 -85 -51 -85 -130v-165h140v-10h-140v-90h140v-10h-140v-165c0 -79 32 -130 85 -130c62 0 89 35 99 70
c-34 0 -54 20 -54 45s20 45 45 45c24 0 45 -20 45 -45c0 -47 -40 -125 -135 -125c-86 0 -165 53 -165 160v145h-40v10h40v90h-40z" />
    <glyph glyph-name="caron" unicode="&#x2c7;" horiz-adv-x="327" 
d="M50 700h10l103 -94l104 94h10l-83 -157h-61z" />
    <glyph glyph-name="Zcaron" unicode="&#x17d;" horiz-adv-x="348" 
d="M316 0h-294l217 690h-132c-36 0 -65 -58 -65 -130h-10v140h294l-217 -690h132c36 0 65 58 65 130h10v-140zM66 900h10l103 -94l104 94h10l-83 -157h-61z" />
    <glyph glyph-name="Scaron" unicode="&#x160;" horiz-adv-x="361" 
d="M36 0v160h10c0 -87 58 -157 124 -157c54 0 92 56 92 127c0 185 -226 200 -226 410c0 94 50 170 139 170c46 0 79 -18 102 -46c15 0 27 12 27 36h10v-150h-10c0 81 -53 147 -114 147c-54 0 -82 -46 -82 -117c0 -187 226 -202 226 -410c0 -99 -55 -180 -149 -180
c-54 0 -93 23 -118 60c-11 -4 -21 -18 -21 -50h-10zM61 900h10l103 -94l104 94h10l-83 -157h-61z" />
    <glyph glyph-name="asciitilde" unicode="~" horiz-adv-x="612" 
d="M366 308l-139 51c-78 28 -155 13 -172 -34l-9 4c32 88 125 135 208 105l139 -51c78 -28 155 -13 172 34l9 -4c-32 -88 -125 -135 -208 -105z" />
    <glyph glyph-name="plusminus" unicode="&#xb1;" horiz-adv-x="434" 
d="M52 375v50h140v140h50v-140h140v-50h-140v-140h-50v140h-140zM52 135v50h330v-50h-330z" />
    <glyph glyph-name="oe" unicode="&#x153;" horiz-adv-x="514" 
d="M170 5c32 0 50 36 50 125v240c0 89 -17 125 -50 125s-50 -36 -50 -125v-240c0 -89 17 -125 50 -125zM300 370v-106h100v106c0 89 -17 125 -50 125s-50 -36 -50 -125zM350 505c66 0 130 -40 130 -135v-116h-180v-164c0 -59 27 -85 60 -85c40 0 100 29 100 125v23h10v-23
c0 -90 -48 -135 -120 -135c-33 0 -66 10 -90 46c-25 -36 -57 -46 -90 -46c-66 0 -130 40 -130 135v240c0 95 64 135 130 135c33 0 65 -10 90 -46c24 36 57 46 90 46z" />
    <glyph glyph-name="minus" unicode="&#x2212;" horiz-adv-x="426" 
d="M48 325v50h330v-50h-330z" />
    <glyph glyph-name="guillemotleft" unicode="&#xab;" horiz-adv-x="373" 
d="M193 182h-80c0 81 -40 150 -90 150v10c50 0 90 67 90 150h80c0 -74 -54 -137 -127 -155c73 -18 127 -81 127 -155zM330 182h-80c0 81 -40 150 -90 150v10c50 0 90 67 90 150h80c0 -74 -54 -137 -127 -155c73 -18 127 -81 127 -155z" />
    <glyph glyph-name="guillemotright" unicode="&#xbb;" horiz-adv-x="373" 
d="M260 182h-80c0 74 54 137 127 155c-73 18 -127 81 -127 155h80c0 -83 40 -150 90 -150v-10c-50 0 -90 -69 -90 -150zM123 182h-80c0 74 54 137 127 155c-73 18 -127 81 -127 155h80c0 -83 40 -150 90 -150v-10c-50 0 -90 -69 -90 -150z" />
    <glyph glyph-name="guilsinglleft" unicode="&#x2039;" horiz-adv-x="236" 
d="M193 182h-80c0 81 -40 150 -90 150v10c50 0 90 67 90 150h80c0 -74 -54 -137 -127 -155c73 -18 127 -81 127 -155z" />
    <glyph glyph-name="guilsinglright" unicode="&#x203a;" horiz-adv-x="236" 
d="M123 182h-80c0 74 54 137 127 155c-73 18 -127 81 -127 155h80c0 -83 40 -150 90 -150v-10c-50 0 -90 -69 -90 -150z" />
    <glyph glyph-name="copyright" unicode="&#xa9;" horiz-adv-x="790" 
d="M65 350c0 -182 148 -330 330 -330s330 148 330 330s-148 330 -330 330s-330 -148 -330 -330zM505 275h10v-150h-10c0 24 -12 36 -26 36c-22 -28 -52 -46 -94 -46c-83 0 -150 72 -150 160v150c0 88 67 160 150 160c42 0 72 -17 94 -46c14 0 26 12 26 36h10v-150h-10
c0 86 -51 150 -110 150c-50 0 -80 -67 -80 -150v-150c0 -83 30 -150 80 -150c59 0 110 64 110 150zM25 350c0 204 166 370 370 370s370 -166 370 -370s-166 -370 -370 -370s-370 166 -370 370z" />
    <glyph glyph-name="endash" unicode="&#x2013;" horiz-adv-x="534" 
d="M47 225v50h440v-50h-440z" />
    <glyph glyph-name="emdash" unicode="&#x2014;" horiz-adv-x="634" 
d="M47 225v50h540v-50h-540z" />
    <glyph glyph-name="tilde" unicode="&#x2dc;" horiz-adv-x="369" 
d="M172 593c-63 37 -112 34 -112 -13h-10c0 76 71 121 147 77c64 -37 112 -34 112 13h10c0 -76 -70 -121 -147 -77z" />
    <glyph glyph-name="ellipsis" unicode="&#x2026;" horiz-adv-x="488" 
d="M34 40c0 28 22 50 50 50s50 -22 50 -50s-22 -50 -50 -50s-50 22 -50 50zM194 40c0 28 22 50 50 50s50 -22 50 -50s-22 -50 -50 -50s-50 22 -50 50zM354 40c0 28 22 50 50 50s50 -22 50 -50s-22 -50 -50 -50s-50 22 -50 50z" />
    <glyph glyph-name="Atilde" unicode="&#xc3;" horiz-adv-x="400" 
d="M-6 0v10c32 0 51 15 56 38l140 662h16l154 -700h40v-10h-162v10h40l-42 195h-143l-41 -195h38v-10h-96zM163 533l-68 -318h139zM185 793c-63 37 -112 34 -112 -13h-10c0 76 71 121 147 77c64 -37 112 -34 112 13h10c0 -76 -70 -121 -147 -77z" />
    <glyph glyph-name="Ntilde" unicode="&#xd1;" horiz-adv-x="394" 
d="M25 700h107l186 -498v488h-40v10h95v-10c-32 0 -45 -13 -45 -30v-660h-16l-232 623v-613h40v-10h-95v10c32 0 45 13 45 30v620c0 17 -13 30 -45 30v10zM191 793c-63 37 -112 34 -112 -13h-10c0 76 71 121 147 77c64 -37 112 -34 112 13h10c0 -76 -70 -121 -147 -77z" />
    <glyph glyph-name="onesuperior" unicode="&#xb9;" horiz-adv-x="195" 
d="M36 678v10l75 12h16v-445h39v-10h-130v10h39v429z" />
    <glyph glyph-name="notequal" unicode="&#x2260;" horiz-adv-x="410" 
d="M40 385v50h185l81 140l43 -25l-66 -115h87v-50h-116l-41 -70h157v-50h-186l-80 -140l-43 25l66 115h-87v50h116l40 70h-156z" />
    <glyph glyph-name="multiply" unicode="&#xd7;" horiz-adv-x="410" 
d="M372 472l-132 -132l132 -132l-35 -35l-133 131l-131 -131l-35 35l131 131l-132 133l35 35l133 -132l132 132z" />
    <glyph glyph-name="agrave" unicode="&#xe0;" horiz-adv-x="343" 
d="M46 420c0 47 50 85 110 85c66 0 130 -38 130 -135v-310c0 -19 9 -34 20 -34s20 15 20 34h10c0 -36 -29 -65 -65 -65c-29 0 -53 18 -62 43c-9 -21 -29 -43 -70 -43c-58 0 -113 45 -113 105v34c0 56 72 105 72 105l108 73v98c0 59 -17 85 -50 85c-25 0 -54 -10 -69 -30
c29 0 49 -20 49 -45s-20 -45 -45 -45s-45 20 -45 45zM206 61v237l-72 -50c-21 -14 -28 -47 -28 -114v-74c0 -22 8 -55 40 -55c25 0 57 22 60 56zM210 543h-10l-114 157h91z" />
    <glyph glyph-name="aacute" unicode="&#xe1;" horiz-adv-x="343" 
d="M46 420c0 47 50 85 110 85c66 0 130 -38 130 -135v-310c0 -19 9 -34 20 -34s20 15 20 34h10c0 -36 -29 -65 -65 -65c-29 0 -53 18 -62 43c-9 -21 -29 -43 -70 -43c-58 0 -113 45 -113 105v34c0 56 72 105 72 105l108 73v98c0 59 -17 85 -50 85c-25 0 -54 -10 -69 -30
c29 0 49 -20 49 -45s-20 -45 -45 -45s-45 20 -45 45zM206 61v237l-72 -50c-21 -14 -28 -47 -28 -114v-74c0 -22 8 -55 40 -55c25 0 57 22 60 56zM126 543h-10l33 157h91z" />
    <glyph glyph-name="ae" unicode="&#xe6;" horiz-adv-x="500" 
d="M286 254v-164c0 -59 27 -85 60 -85c40 0 100 29 100 125v23h10v-23c0 -90 -48 -135 -120 -135c-50 0 -98 23 -119 74c-3 -43 -30 -74 -78 -74c-58 0 -113 45 -113 105v34c0 56 72 105 72 105l108 73v98c0 59 -17 85 -50 85c-25 0 -54 -10 -69 -30c29 0 49 -20 49 -45
s-20 -45 -45 -45s-45 20 -45 45c0 47 50 85 110 85c33 0 66 -10 90 -32c24 22 57 32 90 32c66 0 130 -40 130 -135v-116h-180zM206 70v228l-72 -50c-21 -14 -28 -47 -28 -114v-74c0 -22 8 -55 40 -55c31 0 60 29 60 65zM286 370v-106h100v106c0 89 -17 125 -50 125
s-50 -36 -50 -125z" />
    <glyph glyph-name="igrave" unicode="&#xec;" horiz-adv-x="203" 
d="M144 543h-10l-114 157h91zM24 0v10h40v480h-40v10h120v-490h40v-10h-160z" />
    <glyph glyph-name="iacute" unicode="&#xed;" horiz-adv-x="203" 
d="M24 0v10h40v480h-40v10h120v-490h40v-10h-160zM74 543h-10l33 157h91z" />
    <glyph glyph-name="icircumflex" unicode="&#xee;" horiz-adv-x="203" 
d="M24 0v10h40v480h-40v10h120v-490h40v-10h-160zM1 543h-10l83 157h61l83 -157h-10l-104 94z" />
    <glyph glyph-name="idieresis" unicode="&#xef;" horiz-adv-x="203" 
d="M24 0v10h40v480h-40v10h120v-490h40v-10h-160zM-11 618c0 25 20 45 45 45s45 -20 45 -45s-20 -45 -45 -45s-45 20 -45 45zM129 618c0 25 20 45 45 45s45 -20 45 -45s-20 -45 -45 -45s-45 20 -45 45z" />
    <glyph glyph-name="ntilde" unicode="&#xf1;" horiz-adv-x="377" 
d="M142 417v-407h40v-10h-160v10h40v480h-40v10h120v-47c13 22 49 52 90 52c64 0 90 -37 90 -105v-390h40v-10h-160v10h40v435c0 26 -10 44 -30 44c-28 0 -70 -37 -70 -72zM180 593c-63 37 -112 34 -112 -13h-10c0 76 71 121 147 77c64 -37 112 -34 112 13h10
c0 -76 -70 -121 -147 -77z" />
    <glyph glyph-name="ograve" unicode="&#xf2;" horiz-adv-x="340" 
d="M40 130v240c0 95 64 135 130 135s130 -40 130 -135v-240c0 -95 -64 -135 -130 -135s-130 40 -130 135zM220 130v240c0 89 -17 125 -50 125s-50 -36 -50 -125v-240c0 -89 17 -125 50 -125s50 36 50 125zM207 543h-10l-114 157h91z" />
    <glyph glyph-name="oacute" unicode="&#xf3;" horiz-adv-x="340" 
d="M40 130v240c0 95 64 135 130 135s130 -40 130 -135v-240c0 -95 -64 -135 -130 -135s-130 40 -130 135zM220 130v240c0 89 -17 125 -50 125s-50 -36 -50 -125v-240c0 -89 17 -125 50 -125s50 36 50 125zM143 543h-10l33 157h91z" />
    <glyph glyph-name="ocircumflex" unicode="&#xf4;" horiz-adv-x="340" 
d="M40 130v240c0 95 64 135 130 135s130 -40 130 -135v-240c0 -95 -64 -135 -130 -135s-130 40 -130 135zM220 130v240c0 89 -17 125 -50 125s-50 -36 -50 -125v-240c0 -89 17 -125 50 -125s50 36 50 125zM67 543h-10l83 157h61l83 -157h-10l-104 94z" />
    <glyph glyph-name="otilde" unicode="&#xf5;" horiz-adv-x="340" 
d="M40 130v240c0 95 64 135 130 135s130 -40 130 -135v-240c0 -95 -64 -135 -130 -135s-130 40 -130 135zM220 130v240c0 89 -17 125 -50 125s-50 -36 -50 -125v-240c0 -89 17 -125 50 -125s50 36 50 125zM158 593c-63 37 -112 34 -112 -13h-10c0 76 71 121 147 77
c64 -37 112 -34 112 13h10c0 -76 -70 -121 -147 -77z" />
    <glyph glyph-name="odieresis" unicode="&#xf6;" horiz-adv-x="340" 
d="M40 130v240c0 95 64 135 130 135s130 -40 130 -135v-240c0 -95 -64 -135 -130 -135s-130 40 -130 135zM220 130v240c0 89 -17 125 -50 125s-50 -36 -50 -125v-240c0 -89 17 -125 50 -125s50 36 50 125zM55 618c0 25 20 45 45 45s45 -20 45 -45s-20 -45 -45 -45
s-45 20 -45 45zM195 618c0 25 20 45 45 45s45 -20 45 -45s-20 -45 -45 -45s-45 20 -45 45z" />
    <glyph glyph-name="threesuperior" unicode="&#xb3;" horiz-adv-x="281" 
d="M39 625c0 30 26 81 88 81c56 0 107 -41 107 -104v-23c0 -48 -44 -89 -85 -101c43 -11 92 -52 92 -100v-36c0 -63 -55 -104 -114 -104c-61 0 -94 51 -94 81c0 16 14 29 29 29c16 0 29 -13 29 -29s-13 -29 -33 -29c7 -23 31 -43 69 -43c37 0 62 31 62 69v62
c0 52 -33 95 -65 95h-33v10h33c32 0 58 42 58 96v49c0 38 -20 68 -55 68c-37 0 -58 -19 -64 -42c22 0 35 -13 35 -29c0 -17 -13 -30 -29 -30c-17 0 -30 13 -30 30z" />
    <glyph glyph-name="Otilde" unicode="&#xd5;" 
d="M289 150v400c0 83 -30 150 -80 150s-80 -67 -80 -150v-400c0 -83 30 -150 80 -150s80 67 80 150zM49 150v400c0 88 67 160 160 160s160 -72 160 -160v-400c0 -88 -67 -160 -160 -160s-160 72 -160 160zM197 793c-63 37 -112 34 -112 -13h-10c0 76 71 121 147 77
c64 -37 112 -34 112 13h10c0 -76 -70 -121 -147 -77z" />
    <glyph glyph-name="twosuperior" unicode="&#xb2;" horiz-adv-x="277" 
d="M35 244v26c135 252 150 298 150 345c0 51 -21 81 -56 81c-37 0 -57 -20 -64 -42c22 0 35 -13 35 -30c0 -16 -13 -29 -29 -29s-29 13 -29 29c0 31 26 82 87 82c56 0 108 -35 108 -104c0 -79 -46 -118 -176 -306h159v29h10v-81h-195z" />
    <glyph glyph-name="onehalf" unicode="&#xbd;" horiz-adv-x="608" 
d="M179 0h-43l254 700h43zM26 678v10l75 12h16v-445h39v-10h-130v10h39v429zM379 0v26c135 252 150 298 150 345c0 51 -21 81 -56 81c-37 0 -57 -20 -64 -42c22 0 35 -13 35 -30c0 -16 -13 -29 -29 -29s-29 13 -29 29c0 31 26 82 87 82c56 0 108 -35 108 -104
c0 -79 -46 -118 -176 -306h159v29h10v-81h-195z" />
    <glyph glyph-name="onequarter" unicode="&#xbc;" horiz-adv-x="601" 
d="M548 125h-11v-115h40v-10h-132v10h40v115h-140v10l179 327h13v-327h31v30h10v-73h-10c0 25 -8 33 -20 33zM357 135h128v234zM179 0h-43l254 700h43zM26 678v10l75 12h16v-445h39v-10h-130v10h39v429z" />
    <glyph glyph-name="threequarters" unicode="&#xbe;" horiz-adv-x="648" 
d="M226 0h-43l254 700h43zM595 125h-11v-115h40v-10h-132v10h40v115h-140v10l179 327h13v-327h31v30h10v-73h-10c0 25 -8 33 -20 33zM404 135h128v234zM31 625c0 30 26 81 88 81c56 0 107 -41 107 -104v-23c0 -48 -44 -89 -85 -101c43 -11 92 -52 92 -100v-36
c0 -63 -55 -104 -114 -104c-61 0 -94 51 -94 81c0 16 14 29 29 29c16 0 29 -13 29 -29s-13 -29 -33 -29c7 -23 31 -43 69 -43c37 0 62 31 62 69v62c0 52 -33 95 -65 95h-33v10h33c32 0 58 42 58 96v49c0 38 -20 68 -55 68c-37 0 -58 -19 -64 -42c22 0 35 -13 35 -29
c0 -17 -13 -30 -29 -30c-17 0 -30 13 -30 30z" />
    <glyph glyph-name="egrave" unicode="&#xe8;" horiz-adv-x="334" 
d="M120 254v-164c0 -59 27 -85 60 -85c40 0 100 29 100 125v23h10v-23c0 -90 -48 -135 -120 -135c-66 0 -130 40 -130 135v240c0 95 64 135 130 135s130 -40 130 -135v-116h-180zM120 370v-106h100v106c0 89 -17 125 -50 125s-50 -36 -50 -125zM207 543h-10l-114 157h91z
" />
    <glyph glyph-name="eacute" unicode="&#xe9;" horiz-adv-x="334" 
d="M120 254v-164c0 -59 27 -85 60 -85c40 0 100 29 100 125v23h10v-23c0 -90 -48 -135 -120 -135c-66 0 -130 40 -130 135v240c0 95 64 135 130 135s130 -40 130 -135v-116h-180zM120 370v-106h100v106c0 89 -17 125 -50 125s-50 -36 -50 -125zM133 543h-10l33 157h91z" />
    <glyph glyph-name="ecircumflex" unicode="&#xea;" horiz-adv-x="334" 
d="M120 254v-164c0 -59 27 -85 60 -85c40 0 100 29 100 125v23h10v-23c0 -90 -48 -135 -120 -135c-66 0 -130 40 -130 135v240c0 95 64 135 130 135s130 -40 130 -135v-116h-180zM120 370v-106h100v106c0 89 -17 125 -50 125s-50 -36 -50 -125zM67 543h-10l83 157h61
l83 -157h-10l-104 94z" />
    <glyph glyph-name="edieresis" unicode="&#xeb;" horiz-adv-x="334" 
d="M120 254v-164c0 -59 27 -85 60 -85c40 0 100 29 100 125v23h10v-23c0 -90 -48 -135 -120 -135c-66 0 -130 40 -130 135v240c0 95 64 135 130 135s130 -40 130 -135v-116h-180zM120 370v-106h100v106c0 89 -17 125 -50 125s-50 -36 -50 -125zM55 618c0 25 20 45 45 45
s45 -20 45 -45s-20 -45 -45 -45s-45 20 -45 45zM195 618c0 25 20 45 45 45s45 -20 45 -45s-20 -45 -45 -45s-45 20 -45 45z" />
    <glyph glyph-name="percent" unicode="%" horiz-adv-x="594" 
d="M184 394v220c0 50 -12 86 -42 86s-42 -36 -42 -86v-220c0 -50 12 -86 42 -86s42 36 42 86zM30 394v220c0 53 50 96 112 96s112 -43 112 -96v-220c0 -53 -50 -96 -112 -96s-112 43 -112 96zM139 0h-10l327 700h10zM494 86v220c0 50 -12 86 -42 86s-42 -36 -42 -86v-220
c0 -50 12 -86 42 -86s42 36 42 86zM340 86v220c0 53 50 96 112 96s112 -43 112 -96v-220c0 -53 -50 -96 -112 -96s-112 43 -112 96z" />
    <glyph glyph-name="perthousand" unicode="&#x2030;" horiz-adv-x="868" 
d="M184 394v220c0 50 -12 86 -42 86s-42 -36 -42 -86v-220c0 -50 12 -86 42 -86s42 36 42 86zM30 394v220c0 53 50 96 112 96s112 -43 112 -96v-220c0 -53 -50 -96 -112 -96s-112 43 -112 96zM139 0h-10l327 700h10zM494 86v220c0 50 -12 86 -42 86s-42 -36 -42 -86v-220
c0 -50 12 -86 42 -86s42 36 42 86zM340 86v220c0 53 50 96 112 96s112 -43 112 -96v-220c0 -53 -50 -96 -112 -96s-112 43 -112 96zM769 86v220c0 50 -12 86 -42 86s-42 -36 -42 -86v-220c0 -50 12 -86 42 -86s42 36 42 86zM615 86v220c0 53 50 96 112 96s112 -43 112 -96
v-220c0 -53 -50 -96 -112 -96s-112 43 -112 96z" />
    <glyph glyph-name="fraction" unicode="&#x2044;" horiz-adv-x="289" 
d="M39 0h-43l254 700h43z" />
    <glyph glyph-name="infinity" unicode="&#x221e;" horiz-adv-x="754" 
d="M196 175c-91 0 -165 74 -165 175s74 175 165 175c63 0 114 -49 166 -140c46 66 99 140 196 140c91 0 165 -74 165 -175s-74 -175 -165 -175c-63 0 -114 49 -167 140c-46 -66 -99 -140 -195 -140zM196 245c73 0 115 66 161 132c-20 35 -85 78 -161 78
c-86 0 -155 -47 -155 -105s69 -105 155 -105zM558 455c-74 0 -115 -65 -161 -132c20 -35 85 -78 161 -78c86 0 155 47 155 105s-69 105 -155 105z" />
    <glyph glyph-name="divide" unicode="&#xf7;" horiz-adv-x="406" 
d="M38 325v50h330v-50h-330zM153 475c0 28 22 50 50 50s50 -22 50 -50s-22 -50 -50 -50s-50 22 -50 50zM153 225c0 28 22 50 50 50s50 -22 50 -50s-22 -50 -50 -50s-50 22 -50 50z" />
    <glyph glyph-name="lozenge" unicode="&#x25ca;" horiz-adv-x="487" 
d="M272 845l198 -422l-198 -423h-57l-198 423l198 422h57zM65 423l178 -384l179 384l-179 382z" />
    <glyph glyph-name="yacute" unicode="&#xfd;" horiz-adv-x="329" 
d="M1 490v10h160v-10h-41l81 -338l77 338h-39v10h97v-10c-32 0 -50 -12 -56 -38l-128 -556c-5 -20 -17 -51 -50 -51c-25 0 -45 20 -45 45s20 45 45 45c19 0 35 -12 42 -29l18 77l-121 507h-40zM156 543h-10l33 157h91z" />
    <glyph glyph-name="cedilla" unicode="&#xb8;" horiz-adv-x="185" 
d="M53 -100l17 100h10l-8 -50h10c29 0 53 -23 53 -52s-24 -53 -53 -53h-32l2 10h20c15 0 28 8 28 23s-13 22 -28 22h-19z" />
    <glyph glyph-name="Ccedilla" unicode="&#xc7;" horiz-adv-x="361" 
d="M179 -100l15 90c-81 3 -145 73 -145 160v400c0 88 67 160 150 160c42 0 72 -17 94 -46c14 0 26 12 26 36h10v-150h-10c0 86 -51 150 -110 150c-50 0 -80 -67 -80 -150v-400c0 -83 30 -150 80 -150c59 0 110 64 110 150h10v-150h-10c0 24 -12 36 -26 36
c-21 -27 -50 -44 -89 -46l-6 -40h10c29 0 53 -23 53 -52s-24 -53 -53 -53h-32l2 10h20c15 0 28 8 28 23s-13 22 -28 22h-19z" />
    <glyph glyph-name="ccedilla" unicode="&#xe7;" horiz-adv-x="307" 
d="M159 -100l16 95c-65 2 -135 34 -135 135v240c0 103 74 135 140 135c53 0 100 -38 100 -85c0 -25 -20 -45 -45 -45s-45 20 -45 45s20 45 49 45c-13 20 -34 30 -59 30c-33 0 -60 -26 -60 -85v-320c0 -59 27 -85 60 -85c39 0 90 24 90 95v33h10v-33c0 -65 -43 -102 -95 -105
l-7 -45h10c29 0 53 -23 53 -52s-24 -53 -53 -53h-32l2 10h20c15 0 28 8 28 23s-13 22 -28 22h-19z" />
    <glyph glyph-name="approxequal" unicode="&#x2248;" horiz-adv-x="474" 
d="M268 379l-74 27c-68 25 -126 2 -136 -25l-10 4c25 69 91 95 163 68l73 -26c70 -26 124 -13 134 15l10 -4c-25 -69 -87 -85 -160 -59zM268 259l-74 27c-69 25 -126 2 -136 -25l-10 4c25 68 91 94 163 68l73 -27c70 -25 123 -12 134 16l10 -4c-25 -70 -87 -85 -160 -59z
" />
    <glyph glyph-name="ydieresis" unicode="&#xff;" horiz-adv-x="329" 
d="M1 490v10h160v-10h-41l81 -338l77 338h-39v10h97v-10c-32 0 -50 -12 -56 -38l-128 -556c-5 -20 -17 -51 -50 -51c-25 0 -45 20 -45 45s20 45 45 45c19 0 35 -12 42 -29l18 77l-121 507h-40zM64 618c0 25 20 45 45 45s45 -20 45 -45s-20 -45 -45 -45s-45 20 -45 45z
M204 618c0 25 20 45 45 45s45 -20 45 -45s-20 -45 -45 -45s-45 20 -45 45z" />
    <glyph glyph-name="zcaron" unicode="&#x17e;" horiz-adv-x="323" 
d="M24 10l186 480h-101c-36 0 -65 -58 -65 -130h-10v140h260v-10l-186 -480h111c36 0 65 58 65 130h10v-140h-270v10zM46 700h10l103 -94l104 94h10l-83 -157h-61z" />
    <glyph glyph-name="quoteleft" unicode="&#x2018;" horiz-adv-x="159" 
d="M130 600c0 -28 -22 -51 -50 -51c-25 0 -46 19 -50 44c-1 5 -1 11 -1 16c0 55 45 101 90 101v-10c-22 0 -54 -24 -60 -55c6 3 14 5 21 5c28 0 50 -22 50 -50z" />
    <glyph glyph-name="quotedblleft" unicode="&#x201c;" horiz-adv-x="289" 
d="M130 600c0 -28 -22 -51 -50 -51c-25 0 -46 19 -50 44c-1 5 -1 11 -1 16c0 55 45 101 90 101v-10c-22 0 -54 -24 -60 -55c6 3 14 5 21 5c28 0 50 -22 50 -50zM260 600c0 -28 -22 -51 -50 -51c-25 0 -46 19 -50 44c-1 5 -1 11 -1 16c0 55 45 101 90 101v-10
c-22 0 -54 -24 -60 -55c6 3 14 5 21 5c28 0 50 -22 50 -50z" />
    <glyph glyph-name="quotedblright" unicode="&#x201d;" horiz-adv-x="291" 
d="M164 659c0 28 22 51 50 51c25 0 46 -19 50 -44c1 -5 1 -11 1 -16c0 -55 -45 -101 -90 -101v10c22 0 54 24 60 55c-6 -3 -14 -5 -21 -5c-28 0 -50 22 -50 50zM34 659c0 28 22 51 50 51c25 0 46 -19 50 -44c1 -5 1 -11 1 -16c0 -55 -45 -101 -90 -101v10c22 0 54 24 60 55
c-6 -3 -14 -5 -21 -5c-28 0 -50 22 -50 50z" />
    <glyph glyph-name="quotedblbase" unicode="&#x201e;" horiz-adv-x="300" 
d="M164 40c0 28 22 51 50 51c25 0 46 -19 50 -44c1 -5 1 -11 1 -16c0 -55 -45 -101 -90 -101v10c22 0 54 24 60 55c-6 -3 -14 -5 -21 -5c-28 0 -50 22 -50 50zM34 40c0 28 22 51 50 51c25 0 46 -19 50 -44c1 -5 1 -11 1 -16c0 -55 -45 -101 -90 -101v10c22 0 54 24 60 55
c-6 -3 -14 -5 -21 -5c-28 0 -50 22 -50 50z" />
    <glyph glyph-name="quotesinglbase" unicode="&#x201a;" horiz-adv-x="170" 
d="M34 40c0 28 22 51 50 51c25 0 46 -19 50 -44c1 -5 1 -11 1 -16c0 -55 -45 -101 -90 -101v10c22 0 54 24 60 55c-6 -3 -14 -5 -21 -5c-28 0 -50 22 -50 50z" />
    <glyph glyph-name="quoteright" unicode="&#x2019;" horiz-adv-x="161" 
d="M34 659c0 28 22 51 50 51c25 0 46 -19 50 -44c1 -5 1 -11 1 -16c0 -55 -45 -101 -90 -101v10c22 0 54 24 60 55c-6 -3 -14 -5 -21 -5c-28 0 -50 22 -50 50z" />
    <glyph glyph-name="scaron" unicode="&#x161;" horiz-adv-x="308" 
d="M156 -5c-70 0 -127 43 -127 95c0 25 21 45 45 45c25 0 45 -20 45 -45s-20 -45 -49 -45c17 -25 50 -40 80 -40c46 0 84 37 84 95c0 120 -200 116 -200 280c0 69 54 125 120 125c63 0 110 -38 110 -85c0 -25 -21 -45 -45 -45c-25 0 -45 20 -45 45s20 45 49 45
c-11 18 -34 30 -63 30c-42 0 -76 -33 -76 -85c0 -120 200 -116 200 -280c0 -75 -57 -135 -128 -135zM43 700h10l103 -94l104 94h10l-83 -157h-61z" />
    <glyph glyph-name="lessequal" unicode="&#x2264;" horiz-adv-x="414" 
d="M48 158v50h312v-50h-312zM48 383v54l312 145v-53l-258 -119l258 -119v-53z" />
    <glyph glyph-name="greaterequal" unicode="&#x2265;" horiz-adv-x="414" 
d="M366 208v-50h-312v50h312zM366 437v-54l-312 -145v53l258 119l-258 119v53z" />
    <glyph glyph-name="quotesingle" unicode="'" horiz-adv-x="150" 
d="M25 660c0 28 22 50 50 50s50 -22 50 -50c0 -30 -45 -98 -45 -130h-10c0 32 -45 100 -45 130z" />
    <glyph glyph-name="quotedbl" unicode="&#x22;" horiz-adv-x="270" 
d="M25 660c0 28 22 50 50 50s50 -22 50 -50c0 -30 -45 -98 -45 -130h-10c0 32 -45 100 -45 130zM145 660c0 28 22 50 50 50s50 -22 50 -50c0 -30 -45 -98 -45 -130h-10c0 32 -45 100 -45 130z" />
    <glyph glyph-name="dagger" unicode="&#x2020;" horiz-adv-x="306" 
d="M108 500h16l24 30c0 38 -45 100 -45 130c0 28 22 50 50 50s50 -22 50 -50c0 -30 -45 -92 -45 -130l24 -30h16l30 20h60v-50h-60l-30 20h-16l-24 -645h-10l-24 645h-16l-30 -20h-60v50h60z" />
    <glyph glyph-name="daggerdbl" unicode="&#x2021;" horiz-adv-x="340" 
d="M141 55h-16l-30 -20h-60v50h60l30 -20h16l24 75v275l-24 75h-16l-30 -20h-60v50h60l30 -20h16l24 30c0 38 -45 100 -45 130c0 28 22 50 50 50s50 -22 50 -50c0 -30 -45 -92 -45 -130l24 -30h16l30 20h60v-50h-60l-30 20h-16l-24 -75v-275l24 -75h16l30 20h60v-50h-60
l-30 20h-16l-24 -30c0 -38 45 -100 45 -130c0 -28 -22 -50 -50 -50s-50 22 -50 50c0 30 45 92 45 130z" />
    <glyph glyph-name="ampersand.alt" horiz-adv-x="593" 
d="M208 710c55 0 100 -58 100 -130c0 0 0 -80 -63 -159l121 -211c22 80 48 165 107 165c25 0 45 -21 45 -45c0 -25 -20 -45 -45 -45c-23 0 -42 17 -45 39c-25 -28 -40 -78 -54 -128l39 -66c26 -44 59 -103 124 -103c22 0 41 10 52 29l9 -5c-21 -36 -56 -61 -99 -61
c-81 0 -116 37 -145 86l-11 18c-25 -58 -70 -104 -135 -104c-103 0 -180 72 -180 180c0 88 99 163 145 209l4 4l-64 110c-25 43 -25 87 -25 87c0 72 54 130 120 130zM208 0c60 0 103 47 128 107l-154 267l-3 -3c-44 -46 -71 -113 -71 -201c0 -93 40 -170 100 -170zM208 700
c-35 0 -63 -36 -63 -80c0 -25 16 -53 16 -53l78 -136c59 76 59 149 59 149c0 66 -40 120 -90 120z" />
    <glyph glyph-name="logicalnot" unicode="&#xac;" horiz-adv-x="538" 
d="M48 300v50h440v-190h-50v140h-390z" />
    <glyph glyph-name="dotaccent" unicode="&#x2d9;" horiz-adv-x="190" 
d="M50 618c0 25 20 45 45 45s45 -20 45 -45s-20 -45 -45 -45s-45 20 -45 45z" />
    <glyph glyph-name="product" unicode="&#x220f;" horiz-adv-x="436" 
d="M28 690v10h380v-10h-40v-680h40v-10h-160v10h40v680h-140v-680h40v-10h-160v10h40v680h-40z" />
    <glyph glyph-name="AE" unicode="&#xc6;" horiz-adv-x="582" 
d="M50 48l236 642h-40v10h300v-140h-10c0 72 -29 130 -65 130h-105v-335h70c22 0 40 36 40 80h10v-170h-10c0 44 -18 80 -40 80h-70v-335h105c36 0 65 58 65 130h10v-140h-300v10h40v195h-167l-72 -195h38v-10h-96v10c32 0 53 17 61 38zM122 215h164v444z" />
    <glyph glyph-name="pi" unicode="&#x3c0;" horiz-adv-x="426" 
d="M266 460h-100v-450h40v-10h-160v10h40v443c-23 -8 -60 -28 -60 -63h-10c0 73 42 110 120 110h270v-40h-60v-400c0 -19 9 -34 20 -34s20 15 20 34h10c0 -36 -29 -65 -65 -65s-65 29 -65 65v400z" />
    <glyph glyph-name="asciicircum" unicode="^" horiz-adv-x="420" 
d="M183 700h54l155 -272h-54l-128 226l-128 -226h-54z" />
    <glyph glyph-name="at" unicode="@" horiz-adv-x="733" 
d="M669 200l8 -5c-66 -122 -191 -205 -327 -205c-199 0 -338 161 -320 360c17 199 184 360 383 360s333 -165 281 -360c-28 -105 -144 -186 -245 -186c-30 0 -52 14 -53 49c-18 -25 -55 -49 -101 -49c-221 0 -120 375 77 375c41 0 63 -19 72 -41l6 31h70l-43 -241
c-20 -113 -5 -111 22 -104c93 25 119 112 129 166c36 193 -23 350 -216 350s-297 -157 -313 -350c-17 -193 59 -350 252 -350c132 0 254 82 318 200zM307 174c28 0 85 27 92 65l39 225c7 38 -30 65 -58 65c-156 0 -181 -355 -73 -355z" />
    <glyph glyph-name="integral" unicode="&#x222b;" horiz-adv-x="376" 
d="M148 -60v770c0 103 64 135 130 135c54 0 100 -38 100 -85c0 -25 -20 -45 -45 -45s-45 20 -45 45s20 45 49 45c-13 20 -35 30 -59 30c-33 0 -50 -26 -50 -85v-770c0 -103 -64 -135 -130 -135c-54 0 -100 38 -100 85c0 25 20 45 45 45s45 -20 45 -45s-20 -45 -49 -45
c13 -20 35 -30 59 -30c33 0 50 26 50 85z" />
    <glyph glyph-name="Omega" unicode="&#x2126;" horiz-adv-x="406" 
d="M233 0v100c0 66 50 67 50 150v300c0 83 -30 150 -80 150s-80 -67 -80 -150v-300c0 -83 50 -84 50 -150v-100h-100v120h10v-40h80v20c0 70 -120 62 -120 150v300c0 88 77 160 160 160s160 -72 160 -160v-300c0 -88 -120 -80 -120 -150v-20h80v40h10v-120h-100z" />
    <glyph glyph-name="ugrave" unicode="&#xf9;" horiz-adv-x="372" 
d="M235 83v407h-40v10h120v-490h40v-10h-120v47c-13 -22 -49 -52 -90 -52c-64 0 -90 37 -90 105v390h-40v10h120v-445c0 -26 10 -44 30 -44c28 0 70 37 70 72zM222 543h-10l-114 157h91z" />
    <glyph glyph-name="uacute" unicode="&#xfa;" horiz-adv-x="372" 
d="M235 83v407h-40v10h120v-490h40v-10h-120v47c-13 -22 -49 -52 -90 -52c-64 0 -90 37 -90 105v390h-40v10h120v-445c0 -26 10 -44 30 -44c28 0 70 37 70 72zM138 543h-10l33 157h91z" />
    <glyph glyph-name="ucircumflex" unicode="&#xfb;" horiz-adv-x="372" 
d="M235 83v407h-40v10h120v-490h40v-10h-120v47c-13 -22 -49 -52 -90 -52c-64 0 -90 37 -90 105v390h-40v10h120v-445c0 -26 10 -44 30 -44c28 0 70 37 70 72zM81 543h-10l83 157h61l83 -157h-10l-104 94z" />
    <glyph glyph-name="udieresis" unicode="&#xfc;" horiz-adv-x="372" 
d="M235 83v407h-40v10h120v-490h40v-10h-120v47c-13 -22 -49 -52 -90 -52c-64 0 -90 37 -90 105v390h-40v10h120v-445c0 -26 10 -44 30 -44c28 0 70 37 70 72zM70 618c0 25 20 45 45 45s45 -20 45 -45s-20 -45 -45 -45s-45 20 -45 45zM210 618c0 25 20 45 45 45
s45 -20 45 -45s-20 -45 -45 -45s-45 20 -45 45z" />
    <glyph glyph-name="bullet" unicode="&#x2022;" horiz-adv-x="266" 
d="M63 260c0 39 31 70 70 70s70 -31 70 -70s-31 -70 -70 -70s-70 31 -70 70z" />
    <glyph glyph-name="ring" unicode="&#x2da;" horiz-adv-x="266" 
d="M90 626c0 -24 19 -43 43 -43s43 19 43 43s-19 43 -43 43s-43 -19 -43 -43zM50 626c0 46 37 83 83 83s83 -37 83 -83s-37 -83 -83 -83s-83 37 -83 83z" />
    <glyph glyph-name="Aring" unicode="&#xc5;" horiz-adv-x="400" 
d="M-6 0v10c32 0 51 15 56 38l140 662h16l154 -700h40v-10h-162v10h40l-42 195h-143l-41 -195h38v-10h-96zM163 533l-68 -318h139zM154 826c0 -24 19 -43 43 -43s43 19 43 43s-19 43 -43 43s-43 -19 -43 -43zM114 826c0 46 37 83 83 83s83 -37 83 -83s-37 -83 -83 -83
s-83 37 -83 83z" />
    <glyph glyph-name="hungarumlaut" unicode="&#x2dd;" horiz-adv-x="315" 
d="M60 543h-10l23 157h81zM171 543h-10l23 157h81z" />
    <glyph glyph-name="degree" unicode="&#xb0;" horiz-adv-x="254" 
d="M27 610c0 55 45 100 100 100s100 -45 100 -100s-45 -100 -100 -100s-100 45 -100 100zM57 610c0 -39 31 -70 70 -70s70 31 70 70s-31 70 -70 70s-70 -31 -70 -70z" />
    <glyph glyph-name="breve" unicode="&#x2d8;" horiz-adv-x="326" 
d="M276 656c0 -62 -51 -113 -113 -113s-113 51 -113 113h10c0 -35 46 -53 103 -53s103 18 103 53h10z" />
    <glyph glyph-name="trademark" unicode="&#x2122;" horiz-adv-x="834" 
d="M30 720h300v-140h-10c0 72 -29 130 -65 130h-35v-400h40v-10h-160v10h40v400h-35c-36 0 -65 -58 -65 -130h-10v140zM465 300h-95v10c32 0 45 13 45 30v340c0 15 -13 30 -40 30v10h113l93 -297l95 297h120v-10h-40v-400h40v-10h-160v10h40v372l-125 -382h-12l-114 368
v-358h40v-10z" />
    <glyph glyph-name="paragraph" unicode="&#xb6;" horiz-adv-x="484" 
d="M290 650v-805h-50v455h-60c-88 0 -160 72 -160 160v80c0 88 72 160 160 160h280v-50h-60v-805h-50v805h-60z" />
    <glyph glyph-name="Lslash" unicode="&#x141;" horiz-adv-x="337" 
d="M30 304v12l40 28v346h-40v10h160v-10h-40v-290l95 66v-12l-95 -66v-378h85c36 0 65 58 65 130h10v-140h-280v10h40v322z" />
    <glyph glyph-name="lslash" unicode="&#x142;" horiz-adv-x="200" 
d="M20 304v12l40 28v346h-40v10h120v-300l40 28v-12l-40 -28v-378h40v-10h-160v10h40v322z" />
    <glyph glyph-name="Oslash" unicode="&#xd8;" 
d="M43 4l29 62c-15 24 -23 53 -23 84v400c0 88 67 160 160 160c56 0 103 -27 131 -67l27 57l9 -4l-30 -63c14 -24 23 -53 23 -83v-400c0 -88 -67 -160 -160 -160c-56 0 -103 26 -131 66l-26 -56zM129 550v-362l160 344v18c0 83 -30 150 -80 150s-80 -67 -80 -150zM289 150
v359l-160 -344v-15c0 -83 30 -150 80 -150s80 67 80 150z" />
    <glyph glyph-name="oslash" unicode="&#xf8;" horiz-adv-x="346" 
d="M22 0l35 61c-9 18 -14 41 -14 69v240c0 95 64 135 130 135c43 0 85 -18 109 -56l33 56l9 -5l-36 -61c10 -19 15 -42 15 -69v-240c0 -95 -64 -135 -130 -135c-43 0 -86 17 -110 55l-32 -55zM123 370v-196l100 172v24c0 89 -17 125 -50 125s-50 -36 -50 -125zM223 130v195
l-100 -172v-23c0 -89 17 -125 50 -125s50 36 50 125z" />
    <glyph glyph-name="florin" unicode="&#x192;" horiz-adv-x="516" 
d="M194 490l2 10h40l13 75c18 103 88 135 154 135c54 0 100 -38 100 -85c0 -25 -20 -45 -45 -45s-45 20 -45 45s20 45 49 45c-13 20 -35 30 -61 30c-33 0 -55 -26 -65 -85l-21 -115h81l-2 -10h-81l-89 -510c-18 -103 -88 -135 -154 -135c-54 0 -100 38 -100 85
c0 25 20 45 45 45s45 -20 45 -45s-20 -45 -49 -45c13 -20 35 -30 61 -30c33 0 55 26 65 85l97 550h-40z" />
    <glyph glyph-name="Delta" unicode="&#x2206;" horiz-adv-x="482" 
d="M17 0l215 710l234 -710h-449zM197 559l-157 -519h329z" />
    <glyph glyph-name="summation" unicode="&#x2211;" horiz-adv-x="531" 
d="M17 -100l266 371l-246 429h440v-140h-10c0 72 -29 130 -65 130h-274l211 -359l-252 -351h400v40h10v-120h-480z" />
    <glyph glyph-name="radical" unicode="&#x221a;" horiz-adv-x="409" 
d="M349 835l-179 -845h-20l-105 500h-40v10h118l72 -343l146 688h76v-10h-68z" />
    <glyph glyph-name="germandbls" unicode="&#xdf;" horiz-adv-x="454" 
d="M227 700c-50 0 -90 -45 -90 -100v-600h-120v10h40v540c0 88 76 160 170 160c87 0 158 -52 158 -117c0 -122 -138 -102 -138 -193c0 -110 190 -102 190 -270c0 -75 -47 -135 -120 -135c-42 0 -72 13 -98 47c-7 -5 -12 -13 -12 -42h-10v120h10c0 -62 48 -113 100 -113
c46 0 80 46 80 103c0 110 -190 102 -190 270c0 119 125 93 125 213c0 59 -43 107 -95 107z" />
    <glyph glyph-name="partialdiff" unicode="&#x2202;" horiz-adv-x="410" 
d="M153 -10c-83 0 -142 106 -118 238c23 132 119 239 202 239c32 0 59 -18 72 -41l31 174c17 93 -3 150 -53 150c-61 0 -122 -67 -137 -150h-10c16 88 82 160 148 160c83 0 134 -152 93 -385c-42 -233 -145 -385 -228 -385zM154 0c50 0 90 57 107 150l45 260
c-13 27 -37 47 -71 47c-50 0 -90 -57 -106 -150l-28 -157c-17 -93 3 -150 53 -150z" />
    <glyph glyph-name="eight.alt" horiz-adv-x="416" 
d="M218 -10h-20c-88 0 -160 72 -160 160v55c0 76 60 141 128 156c-63 20 -118 81 -118 154v35c0 88 72 160 160 160s160 -72 160 -160v-35c0 -73 -56 -134 -118 -154c67 -15 128 -80 128 -156v-55c0 -88 -72 -160 -160 -160zM198 0h20c50 0 80 67 80 150v55
c0 83 -30 150 -90 150s-90 -67 -90 -150v-55c0 -83 36 -150 80 -150zM288 515v35c0 83 -30 150 -80 150s-80 -67 -80 -150v-35c0 -81 30 -150 80 -150s80 67 80 150z" />
    <glyph glyph-name="registered" unicode="&#xae;" horiz-adv-x="790" 
d="M341 339v-204h40v-10h-160v10h40v430h-40v10h182c65 0 148 -33 148 -118c0 -54 -35 -99 -84 -114l70 -208h40v-10h-160v10h37l-69 204h-44zM341 565v-216h27c58 0 103 49 103 108c0 60 -48 108 -108 108h-22zM65 350c0 -182 148 -330 330 -330s330 148 330 330
s-148 330 -330 330s-330 -148 -330 -330zM25 350c0 204 166 370 370 370s370 -166 370 -370s-166 -370 -370 -370s-370 166 -370 370z" />
    <glyph glyph-name="ordfeminine" unicode="&#xaa;" horiz-adv-x="219" 
d="M44 668c0 23 25 42 55 42c33 0 65 -19 65 -67v-155c0 -10 5 -17 10 -17c6 0 10 7 10 17h5c0 -18 -14 -33 -32 -33c-15 0 -27 9 -31 22c-5 -11 -15 -22 -35 -22c-29 0 -57 23 -57 53v17c0 28 36 52 36 52l54 37v49c0 29 -8 42 -25 42c-12 0 -27 -5 -34 -15
c14 0 24 -10 24 -22c0 -13 -10 -23 -22 -23c-13 0 -23 10 -23 23zM124 488v119l-36 -25c-10 -7 -14 -24 -14 -57v-37c0 -11 4 -28 20 -28c13 0 29 11 30 28z" />
    <glyph glyph-name="ordmasculine" unicode="&#xba;" horiz-adv-x="208" 
d="M39 523v120c0 47 32 67 65 67s65 -20 65 -67v-120c0 -48 -32 -68 -65 -68s-65 20 -65 68zM129 523v120c0 44 -8 62 -25 62c-16 0 -25 -18 -25 -62v-120c0 -45 9 -63 25 -63c17 0 25 18 25 63z" />
    <glyph glyph-name="eth" unicode="&#xf0;" horiz-adv-x="386" 
d="M107 546l84 64c-43 55 -92 80 -112 80v10c32 0 89 -21 142 -68l90 68l6 -8l-89 -67c64 -60 121 -162 121 -316v-159c0 -88 -77 -160 -160 -160s-160 72 -160 160v120c0 88 65 160 150 160c39 0 74 -28 90 -68c0 109 -33 187 -72 240l-84 -64zM269 110v200
c0 61 -40 110 -90 110c-52 0 -70 -67 -70 -110v-200c0 -43 30 -110 80 -110s80 67 80 110z" />
    <glyph glyph-name="ogonek" unicode="&#x2db;" horiz-adv-x="229" 
d="M179 -132c-14 -14 -34 -23 -57 -23c-40 0 -72 18 -72 56c0 43 50 79 92 99h12c-22 -24 -46 -69 -46 -95c0 -16 3 -40 36 -40c11 0 21 3 30 9z" />
    <glyph glyph-name="s.alt" horiz-adv-x="300" 
d="M84 400c0 -110 190 -102 190 -270c0 -75 -47 -135 -120 -135c-42 0 -72 13 -98 47c-7 -5 -12 -13 -12 -42h-10v120h10c0 -62 48 -113 100 -113c46 0 80 46 80 103c0 110 -190 102 -190 270c0 69 42 125 110 125c36 0 61 -10 86 -38c8 4 14 13 14 33h10v-110h-10
c0 59 -44 103 -87 103c-42 0 -73 -42 -73 -93z" />
    <glyph glyph-name="f.alt" horiz-adv-x="204" 
d="M142 450v-440h40v-10h-160v10h40v480h-40v10h40c0 74 -14 76 -14 130c0 46 38 75 79 75c40 0 75 -29 75 -65c0 -25 -20 -45 -45 -45s-45 20 -45 45s20 45 48 45c-9 6 -20 10 -32 10c-26 0 -40 -25 -40 -47c0 -45 31 -96 46 -148h48v-10h-45c3 -14 5 -27 5 -40z" />
    <glyph glyph-name="j.alt" horiz-adv-x="199" 
d="M95 -90c0 -25 -20 -45 -48 -45c9 -6 20 -10 32 -10c26 0 40 25 40 47c0 59 -54 129 -54 198v390h-40v10h120v-450c0 -74 14 -76 14 -130c0 -46 -38 -75 -79 -75c-40 0 -75 29 -75 65c0 25 20 45 45 45s45 -20 45 -45zM55 620c0 28 22 50 50 50s50 -22 50 -50
s-22 -50 -50 -50s-50 22 -50 50z" />
    <glyph glyph-name="S.alt" horiz-adv-x="376" 
d="M89 580c0 -157 260 -186 260 -410c0 -99 -67 -180 -160 -180c-83 0 -160 60 -160 135c0 25 21 45 45 45c25 0 45 -20 45 -45s-20 -45 -45 -45c-3 0 -6 0 -9 1c22 -47 70 -78 114 -78c66 0 120 56 120 127c0 165 -260 184 -260 410c0 94 60 170 145 170
c74 0 145 -56 145 -125c0 -25 -21 -45 -45 -45c-25 0 -45 20 -45 45s20 45 45 45c3 0 9 -1 11 -2c-18 42 -57 69 -96 69c-61 0 -110 -51 -110 -117z" />
    <glyph glyph-name="R" unicode="R" horiz-adv-x="427" 
d="M190 340h-40v-330h40v-10h-160v10h40v680h-40v10h160c108 0 180 -72 180 -160v-40c0 -74 -52 -137 -132 -155c80 -18 132 -81 132 -155v-135c0 -19 9 -34 20 -34s20 15 20 34h10c0 -36 -29 -65 -65 -65s-65 29 -65 65v135c0 83 -45 150 -100 150zM190 690h-40v-340h40
c55 0 100 67 100 150v40c0 83 -45 150 -100 150z" />
    <glyph glyph-name="Aogonek" unicode="&#x104;" horiz-adv-x="400" 
d="M-6 0v10c32 0 51 15 56 38l140 662h16l154 -700h40v-10h-162v10h40l-42 195h-143l-41 -195h38v-10h-96zM163 533l-68 -318h139zM353 -132c-14 -14 -34 -23 -57 -23c-40 0 -72 18 -72 56c0 43 50 79 92 99h12c-22 -24 -46 -69 -46 -95c0 -16 3 -40 36 -40c11 0 21 3 30 9z
" />
    <glyph glyph-name="Tcaron" unicode="&#x164;" horiz-adv-x="392" 
d="M16 700h360v-140h-10c0 72 -29 130 -65 130h-65v-680h40v-10h-160v10h40v680h-65c-36 0 -65 -58 -65 -130h-10v140zM83 900h10l103 -94l104 94h10l-83 -157h-61z" />
    <glyph glyph-name="Zacute" unicode="&#x179;" horiz-adv-x="348" 
d="M316 0h-294l217 690h-132c-36 0 -65 -58 -65 -130h-10v140h294l-217 -690h132c36 0 65 58 65 130h10v-140zM135 743h-10l33 157h91z" />
    <glyph glyph-name="aogonek" unicode="&#x105;" horiz-adv-x="343" 
d="M46 420c0 47 50 85 110 85c66 0 130 -38 130 -135v-310c0 -19 9 -34 20 -34s20 15 20 34h10c0 -36 -29 -65 -65 -65c-29 0 -53 18 -62 43c-9 -21 -29 -43 -70 -43c-58 0 -113 45 -113 105v34c0 56 72 105 72 105l108 73v98c0 59 -17 85 -50 85c-25 0 -54 -10 -69 -30
c29 0 49 -20 49 -45s-20 -45 -45 -45s-45 20 -45 45zM206 61v237l-72 -50c-21 -14 -28 -47 -28 -114v-74c0 -22 8 -55 40 -55c25 0 57 22 60 56zM308 -132c-14 -14 -34 -23 -57 -23c-40 0 -72 18 -72 56c0 43 50 79 92 99h12c-22 -24 -46 -69 -46 -95c0 -16 3 -40 36 -40
c11 0 21 3 30 9z" />
    <glyph glyph-name="sacute" unicode="&#x15b;" horiz-adv-x="308" 
d="M156 -5c-70 0 -127 43 -127 95c0 25 21 45 45 45c25 0 45 -20 45 -45s-20 -45 -49 -45c17 -25 50 -40 80 -40c46 0 84 37 84 95c0 120 -200 116 -200 280c0 69 54 125 120 125c63 0 110 -38 110 -85c0 -25 -21 -45 -45 -45c-25 0 -45 20 -45 45s20 45 49 45
c-11 18 -34 30 -63 30c-42 0 -76 -33 -76 -85c0 -120 200 -116 200 -280c0 -75 -57 -135 -128 -135zM122 543h-10l33 157h91z" />
    <glyph glyph-name="scedilla" unicode="&#x15f;" horiz-adv-x="308" 
d="M156 -5c-70 0 -127 43 -127 95c0 25 21 45 45 45c25 0 45 -20 45 -45s-20 -45 -49 -45c17 -25 50 -40 80 -40c46 0 84 37 84 95c0 120 -200 116 -200 280c0 69 54 125 120 125c63 0 110 -38 110 -85c0 -25 -21 -45 -45 -45c-25 0 -45 20 -45 45s20 45 49 45
c-11 18 -34 30 -63 30c-42 0 -76 -33 -76 -85c0 -120 200 -116 200 -280c0 -75 -57 -135 -128 -135zM136 -100l17 100h10l-8 -50h10c29 0 53 -23 53 -52s-24 -53 -53 -53h-32l2 10h20c15 0 28 8 28 23s-13 22 -28 22h-19z" />
    <glyph glyph-name="zacute" unicode="&#x17a;" horiz-adv-x="323" 
d="M24 10l186 480h-101c-36 0 -65 -58 -65 -130h-10v140h260v-10l-186 -480h111c36 0 65 58 65 130h10v-140h-270v10zM132 543h-10l33 157h91z" />
    <glyph glyph-name="Racute" unicode="&#x154;" horiz-adv-x="427" 
d="M190 340h-40v-330h40v-10h-160v10h40v680h-40v10h160c108 0 180 -72 180 -160v-40c0 -74 -52 -137 -132 -155c80 -18 132 -81 132 -155v-135c0 -19 9 -34 20 -34s20 15 20 34h10c0 -36 -29 -65 -65 -65s-65 29 -65 65v135c0 83 -45 150 -100 150zM190 690h-40v-340h40
c55 0 100 67 100 150v40c0 83 -45 150 -100 150zM154 743h-10l33 157h91z" />
    <glyph glyph-name="Abreve" unicode="&#x102;" horiz-adv-x="400" 
d="M-6 0v10c32 0 51 15 56 38l140 662h16l154 -700h40v-10h-162v10h40l-42 195h-143l-41 -195h38v-10h-96zM163 533l-68 -318h139zM310 856c0 -62 -51 -113 -113 -113s-113 51 -113 113h10c0 -35 46 -53 103 -53s103 18 103 53h10z" />
    <glyph glyph-name="Lacute" unicode="&#x139;" horiz-adv-x="337" 
d="M320 0h-290v10h40v680h-40v10h160v-10h-40v-680h95c36 0 65 58 65 130h10v-140zM115 743h-10l33 157h91z" />
    <glyph glyph-name="Cacute" unicode="&#x106;" horiz-adv-x="361" 
d="M319 150h10v-150h-10c0 24 -12 36 -26 36c-22 -28 -52 -46 -94 -46c-83 0 -150 72 -150 160v400c0 88 67 160 150 160c42 0 72 -17 94 -46c14 0 26 12 26 36h10v-150h-10c0 86 -51 150 -110 150c-50 0 -80 -67 -80 -150v-400c0 -83 30 -150 80 -150c59 0 110 64 110 150z
M172 743h-10l33 157h91z" />
    <glyph glyph-name="Ccaron" unicode="&#x10c;" horiz-adv-x="361" 
d="M319 150h10v-150h-10c0 24 -12 36 -26 36c-22 -28 -52 -46 -94 -46c-83 0 -150 72 -150 160v400c0 88 67 160 150 160c42 0 72 -17 94 -46c14 0 26 12 26 36h10v-150h-10c0 86 -51 150 -110 150c-50 0 -80 -67 -80 -150v-400c0 -83 30 -150 80 -150c59 0 110 64 110 150z
M95 900h10l103 -94l104 94h10l-83 -157h-61z" />
    <glyph glyph-name="Eogonek" unicode="&#x118;" horiz-adv-x="356" 
d="M320 700v-140h-10c0 72 -29 130 -65 130h-95v-335h60c22 0 40 36 40 80h10v-170h-10c0 44 -18 80 -40 80h-60v-335h95c36 0 65 58 65 130h10v-140h-290v10h40v680h-40v10h290zM290 -132c-14 -14 -34 -23 -57 -23c-40 0 -72 18 -72 56c0 43 50 79 92 99h12
c-22 -24 -46 -69 -46 -95c0 -16 3 -40 36 -40c11 0 21 3 30 9z" />
    <glyph glyph-name="Ecaron" unicode="&#x11a;" horiz-adv-x="356" 
d="M320 700v-140h-10c0 72 -29 130 -65 130h-95v-335h60c22 0 40 36 40 80h10v-170h-10c0 44 -18 80 -40 80h-60v-335h95c36 0 65 58 65 130h10v-140h-290v10h40v680h-40v10h290zM66 900h10l103 -94l104 94h10l-83 -157h-61z" />
    <glyph glyph-name="Dcaron" unicode="&#x10e;" 
d="M30 10h40v680h-40v10h160c108 0 180 -72 180 -160v-380c0 -88 -72 -160 -180 -160h-160v10zM290 160v380c0 83 -45 150 -100 150h-40v-680h40c55 0 100 67 100 150zM56 900h10l103 -94l104 94h10l-83 -157h-61z" />
    <glyph glyph-name="Nacute" unicode="&#x143;" horiz-adv-x="394" 
d="M25 700h107l186 -498v488h-40v10h95v-10c-32 0 -45 -13 -45 -30v-660h-16l-232 623v-613h40v-10h-95v10c32 0 45 13 45 30v620c0 17 -13 30 -45 30v10zM177 743h-10l33 157h91z" />
    <glyph glyph-name="Ncaron" unicode="&#x147;" horiz-adv-x="394" 
d="M25 700h107l186 -498v488h-40v10h95v-10c-32 0 -45 -13 -45 -30v-660h-16l-232 623v-613h40v-10h-95v10c32 0 45 13 45 30v620c0 17 -13 30 -45 30v10zM90 900h10l103 -94l104 94h10l-83 -157h-61z" />
    <glyph glyph-name="Ohungarumlaut" unicode="&#x150;" 
d="M289 150v400c0 83 -30 150 -80 150s-80 -67 -80 -150v-400c0 -83 30 -150 80 -150s80 67 80 150zM49 150v400c0 88 67 160 160 160s160 -72 160 -160v-400c0 -88 -67 -160 -160 -160s-160 72 -160 160zM150 743h-10l23 157h81zM261 743h-10l23 157h81z" />
    <glyph glyph-name="Rcaron" unicode="&#x158;" horiz-adv-x="427" 
d="M190 340h-40v-330h40v-10h-160v10h40v680h-40v10h160c108 0 180 -72 180 -160v-40c0 -74 -52 -137 -132 -155c80 -18 132 -81 132 -155v-135c0 -19 9 -34 20 -34s20 15 20 34h10c0 -36 -29 -65 -65 -65s-65 29 -65 65v135c0 83 -45 150 -100 150zM190 690h-40v-340h40
c55 0 100 67 100 150v40c0 83 -45 150 -100 150zM67 900h10l103 -94l104 94h10l-83 -157h-61z" />
    <glyph glyph-name="Uring" unicode="&#x16e;" horiz-adv-x="405" 
d="M342 660v-510c0 -88 -54 -160 -120 -160c-93 0 -160 72 -160 160v540h-40v10h160v-10h-40v-540c0 -83 30 -150 80 -150c61 0 110 67 110 150v540h-40v10h95v-10c-32 0 -45 -13 -45 -30zM166 826c0 -24 19 -43 43 -43s43 19 43 43s-19 43 -43 43s-43 -19 -43 -43zM126 826
c0 46 37 83 83 83s83 -37 83 -83s-37 -83 -83 -83s-83 37 -83 83z" />
    <glyph glyph-name="Uhungarumlaut" unicode="&#x170;" horiz-adv-x="405" 
d="M342 660v-510c0 -88 -54 -160 -120 -160c-93 0 -160 72 -160 160v540h-40v10h160v-10h-40v-540c0 -83 30 -150 80 -150c61 0 110 67 110 150v540h-40v10h95v-10c-32 0 -45 -13 -45 -30zM137 743h-10l23 157h81zM248 743h-10l23 157h81z" />
    <glyph glyph-name="racute" unicode="&#x155;" horiz-adv-x="289" 
d="M192 440c0 24 19 44 43 45c-8 7 -20 10 -33 10c-32 0 -60 -26 -60 -65v-420h40v-10h-160v10h40v480h-40v10h120v-31c11 20 32 36 69 36c36 0 71 -24 71 -65c0 -25 -20 -45 -45 -45s-45 20 -45 45zM120 543h-10l33 157h91z" />
    <glyph glyph-name="lacute" unicode="&#x13a;" horiz-adv-x="198" 
d="M19 700h120v-690h40v-10h-160v10h40v680h-40v10zM72 743h-10l33 157h91z" />
    <glyph glyph-name="cacute" unicode="&#x107;" horiz-adv-x="308" 
d="M190 420c0 25 20 45 49 45c-13 20 -34 30 -59 30c-33 0 -60 -26 -60 -85v-320c0 -59 27 -85 60 -85c39 0 90 24 90 95v33h10v-33c0 -67 -45 -105 -100 -105c-66 0 -140 32 -140 135v240c0 103 74 135 140 135c53 0 100 -38 100 -85c0 -25 -20 -45 -45 -45s-45 20 -45 45z
M133 543h-10l33 157h91z" />
    <glyph glyph-name="ccaron" unicode="&#x10d;" horiz-adv-x="308" 
d="M190 420c0 25 20 45 49 45c-13 20 -34 30 -59 30c-33 0 -60 -26 -60 -85v-320c0 -59 27 -85 60 -85c39 0 90 24 90 95v33h10v-33c0 -67 -45 -105 -100 -105c-66 0 -140 32 -140 135v240c0 103 74 135 140 135c53 0 100 -38 100 -85c0 -25 -20 -45 -45 -45s-45 20 -45 45z
M47 700h10l103 -94l104 94h10l-83 -157h-61z" />
    <glyph glyph-name="eogonek" unicode="&#x119;" horiz-adv-x="334" 
d="M120 254v-164c0 -59 27 -85 60 -85c40 0 100 29 100 125v23h10v-23c0 -90 -48 -135 -120 -135c-66 0 -130 40 -130 135v240c0 95 64 135 130 135s130 -40 130 -135v-116h-180zM120 370v-106h100v106c0 89 -17 125 -50 125s-50 -36 -50 -125zM230 -132
c-14 -14 -34 -23 -57 -23c-40 0 -72 18 -72 56c0 43 50 79 92 99h12c-22 -24 -46 -69 -46 -95c0 -16 3 -40 36 -40c11 0 21 3 30 9z" />
    <glyph glyph-name="ecaron" unicode="&#x11b;" horiz-adv-x="334" 
d="M120 254v-164c0 -59 27 -85 60 -85c40 0 100 29 100 125v23h10v-23c0 -90 -48 -135 -120 -135c-66 0 -130 40 -130 135v240c0 95 64 135 130 135s130 -40 130 -135v-116h-180zM120 370v-106h100v106c0 89 -17 125 -50 125s-50 -36 -50 -125zM57 700h10l103 -94l104 94h10
l-83 -157h-61z" />
    <glyph glyph-name="nacute" unicode="&#x144;" horiz-adv-x="377" 
d="M142 417v-407h40v-10h-160v10h40v480h-40v10h120v-47c13 22 49 52 90 52c64 0 90 -37 90 -105v-390h40v-10h-160v10h40v435c0 26 -10 44 -30 44c-28 0 -70 -37 -70 -72zM142 543h-10l33 157h91z" />
    <glyph glyph-name="ncaron" unicode="&#x148;" horiz-adv-x="377" 
d="M142 417v-407h40v-10h-160v10h40v480h-40v10h120v-47c13 22 49 52 90 52c64 0 90 -37 90 -105v-390h40v-10h-160v10h40v435c0 26 -10 44 -30 44c-28 0 -70 -37 -70 -72zM78 700h10l103 -94l104 94h10l-83 -157h-61z" />
    <glyph glyph-name="ohungarumlaut" unicode="&#x151;" horiz-adv-x="340" 
d="M40 130v240c0 95 64 135 130 135s130 -40 130 -135v-240c0 -95 -64 -135 -130 -135s-130 40 -130 135zM220 130v240c0 89 -17 125 -50 125s-50 -36 -50 -125v-240c0 -89 17 -125 50 -125s50 36 50 125zM118 543h-10l23 157h81zM229 543h-10l23 157h81z" />
    <glyph glyph-name="rcaron" unicode="&#x159;" horiz-adv-x="289" 
d="M192 440c0 24 19 44 43 45c-8 7 -20 10 -33 10c-32 0 -60 -26 -60 -65v-420h40v-10h-160v10h40v480h-40v10h120v-31c11 20 32 36 69 36c36 0 71 -24 71 -65c0 -25 -20 -45 -45 -45s-45 20 -45 45zM34 700h10l103 -94l104 94h10l-83 -157h-61z" />
    <glyph glyph-name="uring" unicode="&#x16f;" horiz-adv-x="372" 
d="M235 83v407h-40v10h120v-490h40v-10h-120v47c-13 -22 -49 -52 -90 -52c-64 0 -90 37 -90 105v390h-40v10h120v-445c0 -26 10 -44 30 -44c28 0 70 37 70 72zM142 626c0 -24 19 -43 43 -43s43 19 43 43s-19 43 -43 43s-43 -19 -43 -43zM102 626c0 46 37 83 83 83
s83 -37 83 -83s-37 -83 -83 -83s-83 37 -83 83z" />
    <glyph glyph-name="uhungarumlaut" unicode="&#x171;" horiz-adv-x="372" 
d="M235 83v407h-40v10h120v-490h40v-10h-120v47c-13 -22 -49 -52 -90 -52c-64 0 -90 37 -90 105v390h-40v10h120v-445c0 -26 10 -44 30 -44c28 0 70 37 70 72zM112 543h-10l23 157h81zM223 543h-10l23 157h81z" />
    <glyph glyph-name="Scedilla" unicode="&#x15e;" horiz-adv-x="361" 
d="M36 0v160h10c0 -87 58 -157 124 -157c54 0 92 56 92 127c0 185 -226 200 -226 410c0 94 50 170 139 170c46 0 79 -18 102 -46c15 0 27 12 27 36h10v-150h-10c0 81 -53 147 -114 147c-54 0 -82 -46 -82 -117c0 -187 226 -202 226 -410c0 -99 -55 -180 -149 -180
c-54 0 -93 23 -118 60c-11 -4 -21 -18 -21 -50h-10zM160 -100l17 100h10l-8 -50h10c29 0 53 -23 53 -52s-24 -53 -53 -53h-32l2 10h20c15 0 28 8 28 23s-13 22 -28 22h-19z" />
    <glyph glyph-name="zdotaccent" unicode="&#x17c;" horiz-adv-x="323" 
d="M24 10l186 480h-101c-36 0 -65 -58 -65 -130h-10v140h260v-10l-186 -480h111c36 0 65 58 65 130h10v-140h-270v10zM114 618c0 25 20 45 45 45s45 -20 45 -45s-20 -45 -45 -45s-45 20 -45 45z" />
    <glyph glyph-name="Sacute" unicode="&#x15a;" horiz-adv-x="361" 
d="M36 0v160h10c0 -87 58 -157 124 -157c54 0 92 56 92 127c0 185 -226 200 -226 410c0 94 50 170 139 170c46 0 79 -18 102 -46c15 0 27 12 27 36h10v-150h-10c0 81 -53 147 -114 147c-54 0 -82 -46 -82 -117c0 -187 226 -202 226 -410c0 -99 -55 -180 -149 -180
c-54 0 -93 23 -118 60c-11 -4 -21 -18 -21 -50h-10zM155 743h-10l33 157h91z" />
    <glyph glyph-name="Zdotaccent" unicode="&#x17b;" horiz-adv-x="348" 
d="M316 0h-294l217 690h-132c-36 0 -65 -58 -65 -130h-10v140h294l-217 -690h132c36 0 65 58 65 130h10v-140zM127 818c0 25 20 45 45 45s45 -20 45 -45s-20 -45 -45 -45s-45 20 -45 45z" />
    <glyph glyph-name="Lcaron" unicode="&#x13d;" horiz-adv-x="345" 
d="M320 0h-290v10h40v680h-40v10h160v-10h-40v-680h95c36 0 65 58 65 130h10v-140zM220 659c0 28 22 51 50 51c25 0 46 -19 50 -44c1 -5 1 -11 1 -16c0 -55 -45 -101 -90 -101v10c22 0 54 24 60 55c-6 -3 -14 -5 -21 -5c-28 0 -50 22 -50 50z" />
    <glyph glyph-name="lcaron" unicode="&#x13e;" horiz-adv-x="198" 
d="M19 700h120v-690h40v-10h-160v10h40v680h-40v10zM177 659c0 28 22 51 50 51c25 0 46 -19 50 -44c1 -5 1 -11 1 -16c0 -55 -45 -101 -90 -101v10c22 0 54 24 60 55c-6 -3 -14 -5 -21 -5c-28 0 -50 22 -50 50z" />
    <glyph glyph-name="tcaron" unicode="&#x165;" horiz-adv-x="207" 
d="M189 60h-10c0 -19 -9 -34 -20 -34s-20 15 -20 34v430h60v10h-60v120l-80 -53v-67h-50v-10h50v-430c0 -36 29 -65 65 -65s65 29 65 65zM179 629c0 28 22 51 50 51c25 0 46 -19 50 -44c1 -5 1 -11 1 -16c0 -55 -45 -101 -90 -101v10c22 0 54 24 60 55c-6 -3 -14 -5 -21 -5
c-28 0 -50 22 -50 50z" />
    <glyph glyph-name="Dcroat" unicode="&#x110;" 
d="M30 345v10h40v335h-40v10h160c108 0 180 -72 180 -160v-380c0 -88 -72 -160 -180 -160h-160v10h40v335h-40zM290 160v380c0 83 -45 150 -100 150h-40v-335h90v-10h-90v-335h40c55 0 100 67 100 150z" />
    <glyph glyph-name="dcaron" unicode="&#x10f;" horiz-adv-x="358" 
d="M221 70v360c0 38 -32 65 -60 65c-22 0 -40 -18 -40 -50v-390c0 -32 18 -50 40 -50c28 0 60 27 60 65zM221 0v32c-13 -22 -34 -37 -70 -37c-55 0 -110 37 -110 105v300c0 68 55 105 110 105c36 0 57 -15 70 -37v222h-40v10h120v-690h40v-10h-120zM339 659
c0 28 22 51 50 51c25 0 46 -19 50 -44c1 -5 1 -11 1 -16c0 -55 -45 -101 -90 -101v10c22 0 54 24 60 55c-6 -3 -14 -5 -21 -5c-28 0 -50 22 -50 50z" />
    <glyph glyph-name="uni0162" unicode="&#x162;" horiz-adv-x="392" 
d="M176 -100l17 100h-77v10h40v680h-65c-36 0 -65 -58 -65 -130h-10v140h360v-140h-10c0 72 -29 130 -65 130h-65v-680h40v-10h-73l-8 -50h10c29 0 53 -23 53 -52s-24 -53 -53 -53h-32l2 10h20c15 0 28 8 28 23s-13 22 -28 22h-19z" />
    <glyph glyph-name="dcroat" unicode="&#x111;" horiz-adv-x="358" 
d="M221 0v32c-13 -22 -34 -37 -70 -37c-55 0 -110 37 -110 105v300c0 68 55 105 110 105c36 0 57 -15 70 -37v107h-100v10h100v105h-40v10h120v-115h40v-10h-40v-565h40v-10h-120zM221 70v360c0 38 -32 65 -60 65c-22 0 -40 -18 -40 -50v-390c0 -32 18 -50 40 -50
c28 0 60 27 60 65z" />
    <glyph glyph-name="uni0163" unicode="&#x163;" horiz-adv-x="207" 
d="M179 60h10c0 -35 -27 -62 -60 -65l-7 -45h10c29 0 53 -23 53 -52s-24 -53 -53 -53h-32l2 10h20c15 0 28 8 28 23s-13 22 -28 22h-19l16 95c-34 3 -60 30 -60 65v430h-50v10h50v67l80 53v-120h60v-10h-60v-430c0 -20 9 -37 20 -37s20 17 20 37z" />
    <glyph glyph-name="macron" unicode="&#xaf;" horiz-adv-x="306" 
d="M50 558v40h206v-40h-206z" />
    <glyph glyph-name="Amacron" unicode="&#x100;" horiz-adv-x="400" 
d="M-6 0v10c32 0 51 15 56 38l140 662h16l154 -700h40v-10h-162v10h40l-42 195h-143l-41 -195h38v-10h-96zM163 533l-68 -318h139zM94 758v40h206v-40h-206z" />
    <glyph glyph-name="Emacron" unicode="&#x112;" horiz-adv-x="356" 
d="M320 700v-140h-10c0 72 -29 130 -65 130h-95v-335h60c22 0 40 36 40 80h10v-170h-10c0 44 -18 80 -40 80h-60v-335h95c36 0 65 58 65 130h10v-140h-290v10h40v680h-40v10h290zM87 758v40h206v-40h-206z" />
    <glyph glyph-name="Edotaccent" unicode="&#x116;" horiz-adv-x="356" 
d="M320 700v-140h-10c0 72 -29 130 -65 130h-95v-335h60c22 0 40 36 40 80h10v-170h-10c0 44 -18 80 -40 80h-60v-335h95c36 0 65 58 65 130h10v-140h-290v10h40v680h-40v10h290zM145 818c0 25 20 45 45 45s45 -20 45 -45s-20 -45 -45 -45s-45 20 -45 45z" />
    <glyph glyph-name="edotaccent" unicode="&#x117;" horiz-adv-x="334" 
d="M120 254v-164c0 -59 27 -85 60 -85c40 0 100 29 100 125v23h10v-23c0 -90 -48 -135 -120 -135c-66 0 -130 40 -130 135v240c0 95 64 135 130 135s130 -40 130 -135v-116h-180zM120 370v-106h100v106c0 89 -17 125 -50 125s-50 -36 -50 -125zM125 618c0 25 20 45 45 45
s45 -20 45 -45s-20 -45 -45 -45s-45 20 -45 45z" />
    <glyph glyph-name="Iogonek" unicode="&#x12e;" horiz-adv-x="220" 
d="M30 700h160v-10h-40v-680h40v-10h-160v10h40v680h-40v10zM175 -132c-14 -14 -34 -23 -57 -23c-40 0 -72 18 -72 56c0 43 50 79 92 99h12c-22 -24 -46 -69 -46 -95c0 -16 3 -40 36 -40c11 0 21 3 30 9z" />
    <glyph glyph-name="iogonek" unicode="&#x12f;" horiz-adv-x="203" 
d="M24 10v-10h160v10h-40v490h-120v-10h40v-480h-40zM54 620c0 28 22 50 50 50s50 -22 50 -50s-22 -50 -50 -50s-50 22 -50 50zM169 -132c-14 -14 -34 -23 -57 -23c-40 0 -72 18 -72 56c0 43 50 79 92 99h12c-22 -24 -46 -69 -46 -95c0 -16 3 -40 36 -40c11 0 21 3 30 9z
" />
    <glyph glyph-name="Imacron" unicode="&#x12a;" horiz-adv-x="220" 
d="M30 700h160v-10h-40v-680h40v-10h-160v10h40v680h-40v10zM7 758v40h206v-40h-206z" />
    <glyph glyph-name="imacron" unicode="&#x12b;" horiz-adv-x="203" 
d="M24 0v10h40v480h-40v10h120v-490h40v-10h-160zM1 558v40h206v-40h-206z" />
    <glyph glyph-name="uni0136" unicode="&#x136;" horiz-adv-x="407" 
d="M30 700h160v-10h-40v-355l188 355h-37v10h98v-10c-44 0 -57 -14 -67 -33l-99 -187l148 -460h40v-10h-159v10h39l-119 365l-32 -60v-305h40v-10h-160v10h40v680h-40v10zM182 -50h20c29 0 53 -23 53 -52s-24 -53 -53 -53h-32l2 10h20c15 0 28 8 28 23s-13 22 -28 22h-10v50
z" />
    <glyph glyph-name="Omacron" unicode="&#x14c;" 
d="M289 150v400c0 83 -30 150 -80 150s-80 -67 -80 -150v-400c0 -83 30 -150 80 -150s80 67 80 150zM49 150v400c0 88 67 160 160 160s160 -72 160 -160v-400c0 -88 -67 -160 -160 -160s-160 72 -160 160zM106 758v40h206v-40h-206z" />
    <glyph glyph-name="umacron" unicode="&#x16b;" horiz-adv-x="372" 
d="M235 83v407h-40v10h120v-490h40v-10h-120v47c-13 -22 -49 -52 -90 -52c-64 0 -90 37 -90 105v390h-40v10h120v-445c0 -26 10 -44 30 -44c28 0 70 37 70 72zM82 558v40h206v-40h-206z" />
    <glyph glyph-name="Uogonek" unicode="&#x172;" horiz-adv-x="406" 
d="M343 660v-510c0 -88 -54 -160 -120 -160c-93 0 -160 72 -160 160v540h-40v10h160v-10h-40v-540c0 -83 30 -150 80 -150c61 0 110 67 110 150v540h-40v10h95v-10c-32 0 -45 -13 -45 -30zM287 -132c-14 -14 -34 -23 -57 -23c-40 0 -72 18 -72 56c0 43 50 79 92 99h12
c-22 -24 -46 -69 -46 -95c0 -16 3 -40 36 -40c11 0 21 3 30 9z" />
    <glyph glyph-name="uogonek" unicode="&#x173;" horiz-adv-x="372" 
d="M235 83v407h-40v10h120v-490h40v-10h-120v47c-13 -22 -49 -52 -90 -52c-64 0 -90 37 -90 105v390h-40v10h120v-445c0 -26 10 -44 30 -44c28 0 70 37 70 72zM340 -132c-14 -14 -34 -23 -57 -23c-40 0 -72 18 -72 56c0 43 50 79 92 99h12c-22 -24 -46 -69 -46 -95
c0 -16 3 -40 36 -40c11 0 21 3 30 9z" />
    <glyph glyph-name="commaaccent" unicode="&#xf6c3;" horiz-adv-x="125" 
d="M32 -50h20c29 0 53 -23 53 -52s-24 -53 -53 -53h-32l2 10h20c15 0 28 8 28 23s-13 22 -28 22h-10v50z" />
    <glyph glyph-name="uni013B" unicode="&#x13b;" horiz-adv-x="337" 
d="M320 0h-290v10h40v680h-40v10h160v-10h-40v-680h95c36 0 65 58 65 130h10v-140zM152 -50h20c29 0 53 -23 53 -52s-24 -53 -53 -53h-32l2 10h20c15 0 28 8 28 23s-13 22 -28 22h-10v50z" />
    <glyph glyph-name="uni013C" unicode="&#x13c;" horiz-adv-x="198" 
d="M19 700h120v-690h40v-10h-160v10h40v680h-40v10zM67 -50h20c29 0 53 -23 53 -52s-24 -53 -53 -53h-32l2 10h20c15 0 28 8 28 23s-13 22 -28 22h-10v50z" />
    <glyph glyph-name="uni0145" unicode="&#x145;" horiz-adv-x="394" 
d="M25 700h107l186 -498v488h-40v10h95v-10c-32 0 -45 -13 -45 -30v-660h-16l-232 623v-613h40v-10h-95v10c32 0 45 13 45 30v620c0 17 -13 30 -45 30v10zM167 -50h20c29 0 53 -23 53 -52s-24 -53 -53 -53h-32l2 10h20c15 0 28 8 28 23s-13 22 -28 22h-10v50z" />
    <glyph glyph-name="uni0146" unicode="&#x146;" horiz-adv-x="377" 
d="M142 417v-407h40v-10h-160v10h40v480h-40v10h120v-47c13 22 49 52 90 52c64 0 90 -37 90 -105v-390h40v-10h-160v10h40v435c0 26 -10 44 -30 44c-28 0 -70 -37 -70 -72zM154 -50h20c29 0 53 -23 53 -52s-24 -53 -53 -53h-32l2 10h20c15 0 28 8 28 23s-13 22 -28 22h-10
v50z" />
    <glyph glyph-name="omacron" unicode="&#x14d;" horiz-adv-x="340" 
d="M40 130v240c0 95 64 135 130 135s130 -40 130 -135v-240c0 -95 -64 -135 -130 -135s-130 40 -130 135zM220 130v240c0 89 -17 125 -50 125s-50 -36 -50 -125v-240c0 -89 17 -125 50 -125s50 36 50 125zM67 558v40h206v-40h-206z" />
    <glyph glyph-name="uni0156" unicode="&#x156;" horiz-adv-x="427" 
d="M190 340h-40v-330h40v-10h-160v10h40v680h-40v10h160c108 0 180 -72 180 -160v-40c0 -74 -52 -137 -132 -155c80 -18 132 -81 132 -155v-135c0 -19 9 -34 20 -34s20 15 20 34h10c0 -36 -29 -65 -65 -65s-65 29 -65 65v135c0 83 -45 150 -100 150zM190 690h-40v-340h40
c55 0 100 67 100 150v40c0 83 -45 150 -100 150zM172 -50h20c29 0 53 -23 53 -52s-24 -53 -53 -53h-32l2 10h20c15 0 28 8 28 23s-13 22 -28 22h-10v50z" />
    <glyph glyph-name="uni0157" unicode="&#x157;" horiz-adv-x="289" 
d="M192 440c0 24 19 44 43 45c-8 7 -20 10 -33 10c-32 0 -60 -26 -60 -65v-420h40v-10h-160v10h40v480h-40v10h120v-31c11 20 32 36 69 36c36 0 71 -24 71 -65c0 -25 -20 -45 -45 -45s-45 20 -45 45zM70 -50h20c29 0 53 -23 53 -52s-24 -53 -53 -53h-32l2 10h20
c15 0 28 8 28 23s-13 22 -28 22h-10v50z" />
    <glyph glyph-name="uni0137" unicode="&#x137;" horiz-adv-x="355" 
d="M208 0v10h37l-87 291l-21 -28v-263h40v-10h-160v10h40v680h-40v10h120v-410l148 200h-33v10h95v-10c-37 0 -58 -12 -72 -31l-60 -81l109 -368h39v-10h-155zM139 -50h20c29 0 53 -23 53 -52s-24 -53 -53 -53h-32l2 10h20c15 0 28 8 28 23s-13 22 -28 22h-10v50z" />
    <glyph glyph-name="uni0122" unicode="&#x122;" horiz-adv-x="402" 
d="M349 339v-287c-71 0 -92 -62 -150 -62c-83 0 -150 72 -150 160v400c0 88 67 160 150 160c42 0 72 -17 94 -46c14 0 26 12 26 36h10v-150h-10c0 86 -51 150 -110 150c-50 0 -80 -67 -80 -150v-400c0 -83 31 -150 70 -150s70 67 70 150v189h-40v10h160v-10h-40zM201 -50h20
c29 0 53 -23 53 -52s-24 -53 -53 -53h-32l2 10h20c15 0 28 8 28 23s-13 22 -28 22h-10v50z" />
    <glyph glyph-name="uni0123" unicode="&#x123;" horiz-adv-x="375" 
d="M223 310v60c0 93 -17 125 -50 125s-50 -32 -50 -125v-60c0 -93 17 -125 50 -125s50 32 50 125zM263 -45v130h-130c-44 0 -90 18 -90 50c0 29 50 46 88 49c-40 17 -88 51 -88 126v60c0 101 64 135 130 135c34 0 72 -10 93 -31c14 17 37 31 66 31c17 0 30 -13 30 -30
s-13 -30 -30 -30s-30 13 -30 36c-11 -4 -19 -10 -27 -17c17 -22 28 -49 28 -94v-60c0 -101 -62 -135 -130 -135h-20c-11 0 -30 -8 -30 -40s19 -40 30 -40h190v-120c0 -82 -72 -130 -160 -130s-160 49 -160 110s72 110 160 110v-10c-47 0 -80 -41 -80 -100s33 -100 80 -100
s80 41 80 100zM191 555h-20c-29 0 -53 23 -53 52s24 53 53 53h32l-2 -10h-20c-15 0 -28 -8 -28 -23s13 -22 28 -22h10v-50z" />
    <glyph glyph-name="Itilde" unicode="&#x128;" horiz-adv-x="220" 
d="M30 700h160v-10h-40v-680h40v-10h-160v10h40v680h-40v10zM98 793c-63 37 -112 34 -112 -13h-10c0 76 71 121 147 77c64 -37 112 -34 112 13h10c0 -76 -70 -121 -147 -77z" />
    <glyph glyph-name="utilde" unicode="&#x169;" horiz-adv-x="372" 
d="M235 83v407h-40v10h120v-490h40v-10h-120v47c-13 -22 -49 -52 -90 -52c-64 0 -90 37 -90 105v390h-40v10h120v-445c0 -26 10 -44 30 -44c28 0 70 37 70 72zM173 593c-63 37 -112 34 -112 -13h-10c0 76 71 121 147 77c64 -37 112 -34 112 13h10c0 -76 -70 -121 -147 -77z
" />
    <glyph glyph-name="Utilde" unicode="&#x168;" horiz-adv-x="405" 
d="M342 660v-510c0 -88 -54 -160 -120 -160c-93 0 -160 72 -160 160v540h-40v10h160v-10h-40v-540c0 -83 30 -150 80 -150c61 0 110 67 110 150v540h-40v10h95v-10c-32 0 -45 -13 -45 -30zM197 793c-63 37 -112 34 -112 -13h-10c0 76 71 121 147 77c64 -37 112 -34 112 13
h10c0 -76 -70 -121 -147 -77z" />
    <glyph glyph-name="itilde" unicode="&#x129;" horiz-adv-x="203" 
d="M24 0v10h40v480h-40v10h120v-490h40v-10h-160zM92 593c-63 37 -112 34 -112 -13h-10c0 76 71 121 147 77c64 -37 112 -34 112 13h10c0 -76 -70 -121 -147 -77z" />
    <glyph glyph-name="kgreenlandic" unicode="&#x138;" horiz-adv-x="360" 
d="M213 0v10h37l-87 291l-21 -28v-263h40v-10h-160v10h40v480h-40v10h120v-210l148 200h-33v10h95v-10c-37 0 -58 -12 -72 -31l-60 -81l109 -368h39v-10h-155z" />
    <glyph glyph-name="Eng" unicode="&#x14a;" horiz-adv-x="394" 
d="M70 40v620c0 15 -13 30 -30 30h-10v10h102l186 -498v488h-40v10h95v-10c-32 0 -45 -13 -45 -30v-645c0 -94 -76 -170 -170 -170v10c50 0 90 72 90 160v157l-168 451v-613h40v-10h-95v10c32 0 45 13 45 30z" />
    <glyph glyph-name="eng" unicode="&#x14b;" horiz-adv-x="372" 
d="M322 400v-385c0 -94 -76 -170 -170 -170v10c50 0 90 72 90 160v430c0 32 -18 50 -40 50c-28 0 -60 -27 -60 -65v-420h40v-10h-160v10h40v480h-40v10h120v-32c13 22 34 37 70 37c55 0 110 -37 110 -105z" />
    <glyph glyph-name="tbar" unicode="&#x167;" horiz-adv-x="209" 
d="M11 330v10h50v150h-50v10h50v67l80 53v-120h60v-10h-60v-150h60v-10h-60v-270c0 -20 9 -37 20 -37s20 17 20 37h10c0 -36 -29 -65 -65 -65s-65 29 -65 65v270h-50z" />
    <glyph glyph-name="Tbar" unicode="&#x166;" horiz-adv-x="392" 
d="M81 410v10h75v270h-65c-36 0 -65 -58 -65 -130h-10v140h360v-140h-10c0 72 -29 130 -65 130h-65v-270h75v-10h-75v-400h40v-10h-160v10h40v400h-75z" />
    <glyph glyph-name="question.alt" horiz-adv-x="341" 
d="M20 585c0 47 44 125 135 125s165 -72 165 -160c0 -197 -180 -200 -180 -420h-20c0 235 120 243 120 420c0 83 -38 150 -85 150c-62 0 -89 -36 -99 -71c3 1 6 1 9 1c25 0 45 -20 45 -45s-20 -45 -45 -45s-45 20 -45 45zM80 40c0 28 22 50 50 50s50 -22 50 -50
s-22 -50 -50 -50s-50 22 -50 50z" />
    <glyph glyph-name="ampersand" unicode="&#x26;" horiz-adv-x="538" 
d="M286 585c0 25 20 45 45 45c3 0 6 0 9 -1c-10 35 -38 71 -99 71c-47 0 -85 -67 -85 -150s38 -150 85 -150h45v-10c-114 0 -185 -87 -185 -195s72 -195 165 -195c99 0 180 81 180 180c0 40 -13 77 -35 107h-77c-35 0 -63 -28 -63 -63c0 -21 9 -39 23 -51c-3 7 -5 15 -5 23
c0 25 20 45 45 45s45 -20 45 -45s-20 -45 -45 -45c-51 0 -93 42 -93 93s42 93 93 93h100c35 0 63 28 63 63c0 20 -9 38 -23 49c3 -7 5 -14 5 -21c0 -25 -20 -45 -45 -45s-45 20 -45 45s20 45 45 45c51 0 93 -43 93 -93c0 -51 -42 -93 -93 -93h-11c21 -31 33 -68 33 -107
c0 -105 -85 -190 -190 -190c-153 0 -245 92 -245 205c0 99 80 182 173 201c-62 19 -118 77 -118 154c0 97 79 160 165 160c92 0 135 -78 135 -125c0 -25 -20 -45 -45 -45s-45 20 -45 45z" />
    <glyph glyph-name="emacron" unicode="&#x113;" horiz-adv-x="334" 
d="M120 254v-164c0 -59 27 -85 60 -85c40 0 100 29 100 125v23h10v-23c0 -90 -48 -135 -120 -135c-66 0 -130 40 -130 135v240c0 95 64 135 130 135s130 -40 130 -135v-116h-180zM120 370v-106h100v106c0 89 -17 125 -50 125s-50 -36 -50 -125zM67 558v40h206v-40h-206z" />
    <glyph glyph-name="Umacron" unicode="&#x16a;" horiz-adv-x="405" 
d="M342 660v-510c0 -88 -54 -160 -120 -160c-93 0 -160 72 -160 160v540h-40v10h160v-10h-40v-540c0 -83 30 -150 80 -150c61 0 110 67 110 150v540h-40v10h95v-10c-32 0 -45 -13 -45 -30zM106 758v40h206v-40h-206z" />
    <glyph glyph-name="amacron" unicode="&#x101;" horiz-adv-x="343" 
d="M46 420c0 47 50 85 110 85c66 0 130 -38 130 -135v-310c0 -19 9 -34 20 -34s20 15 20 34h10c0 -36 -29 -65 -65 -65c-29 0 -53 18 -62 43c-9 -21 -29 -43 -70 -43c-58 0 -113 45 -113 105v34c0 56 72 105 72 105l108 73v98c0 59 -17 85 -50 85c-25 0 -54 -10 -69 -30
c29 0 49 -20 49 -45s-20 -45 -45 -45s-45 20 -45 45zM206 61v237l-72 -50c-21 -14 -28 -47 -28 -114v-74c0 -22 8 -55 40 -55c25 0 57 22 60 56zM68 558v40h206v-40h-206z" />
    <glyph glyph-name="adieresis" unicode="&#xe4;" horiz-adv-x="343" 
d="M46 420c0 47 50 85 110 85c66 0 130 -38 130 -135v-310c0 -19 9 -34 20 -34s20 15 20 34h10c0 -36 -29 -65 -65 -65c-29 0 -53 18 -62 43c-9 -21 -29 -43 -70 -43c-58 0 -113 45 -113 105v34c0 56 72 105 72 105l108 73v98c0 59 -17 85 -50 85c-25 0 -54 -10 -69 -30
c29 0 49 -20 49 -45s-20 -45 -45 -45s-45 20 -45 45zM206 61v237l-72 -50c-21 -14 -28 -47 -28 -114v-74c0 -22 8 -55 40 -55c25 0 57 22 60 56zM54 618c0 25 20 45 45 45s45 -20 45 -45s-20 -45 -45 -45s-45 20 -45 45zM194 618c0 25 20 45 45 45s45 -20 45 -45
s-20 -45 -45 -45s-45 20 -45 45z" />
    <glyph glyph-name="Ocircumflex" unicode="&#xd4;" 
d="M289 150v400c0 83 -30 150 -80 150s-80 -67 -80 -150v-400c0 -83 30 -150 80 -150s80 67 80 150zM49 150v400c0 88 67 160 160 160s160 -72 160 -160v-400c0 -88 -67 -160 -160 -160s-160 72 -160 160zM106 743h-10l83 157h61l83 -157h-10l-104 94z" />
    <glyph glyph-name="acircumflex" unicode="&#xe2;" horiz-adv-x="343" 
d="M46 420c0 47 50 85 110 85c66 0 130 -38 130 -135v-310c0 -19 9 -34 20 -34s20 15 20 34h10c0 -36 -29 -65 -65 -65c-29 0 -53 18 -62 43c-9 -21 -29 -43 -70 -43c-58 0 -113 45 -113 105v34c0 56 72 105 72 105l108 73v98c0 59 -17 85 -50 85c-25 0 -54 -10 -69 -30
c29 0 49 -20 49 -45s-20 -45 -45 -45s-45 20 -45 45zM206 61v237l-72 -50c-21 -14 -28 -47 -28 -114v-74c0 -22 8 -55 40 -55c25 0 57 22 60 56zM67 543h-10l83 157h61l83 -157h-10l-104 94z" />
    <glyph glyph-name="Aacute" unicode="&#xc1;" horiz-adv-x="400" 
d="M-6 0v10c32 0 51 15 56 38l140 662h16l154 -700h40v-10h-162v10h40l-42 195h-143l-41 -195h38v-10h-96zM163 533l-68 -318h139zM165 743h-10l33 157h91z" />
    <glyph glyph-name="aring" unicode="&#xe5;" horiz-adv-x="343" 
d="M46 420c0 47 50 85 110 85c66 0 130 -38 130 -135v-310c0 -19 9 -34 20 -34s20 15 20 34h10c0 -36 -29 -65 -65 -65c-29 0 -53 18 -62 43c-9 -21 -29 -43 -70 -43c-58 0 -113 45 -113 105v34c0 56 72 105 72 105l108 73v98c0 59 -17 85 -50 85c-25 0 -54 -10 -69 -30
c29 0 49 -20 49 -45s-20 -45 -45 -45s-45 20 -45 45zM206 61v237l-72 -50c-21 -14 -28 -47 -28 -114v-74c0 -22 8 -55 40 -55c25 0 57 22 60 56zM128 626c0 -24 19 -43 43 -43s43 19 43 43s-19 43 -43 43s-43 -19 -43 -43zM88 626c0 46 37 83 83 83s83 -37 83 -83
s-37 -83 -83 -83s-83 37 -83 83z" />
    <glyph glyph-name="atilde" unicode="&#xe3;" horiz-adv-x="343" 
d="M46 420c0 47 50 85 110 85c66 0 130 -38 130 -135v-310c0 -19 9 -34 20 -34s20 15 20 34h10c0 -36 -29 -65 -65 -65c-29 0 -53 18 -62 43c-9 -21 -29 -43 -70 -43c-58 0 -113 45 -113 105v34c0 56 72 105 72 105l108 73v98c0 59 -17 85 -50 85c-25 0 -54 -10 -69 -30
c29 0 49 -20 49 -45s-20 -45 -45 -45s-45 20 -45 45zM206 61v237l-72 -50c-21 -14 -28 -47 -28 -114v-74c0 -22 8 -55 40 -55c25 0 57 22 60 56zM159 593c-63 37 -112 34 -112 -13h-10c0 76 71 121 147 77c64 -37 112 -34 112 13h10c0 -76 -70 -121 -147 -77z" />
    <glyph glyph-name="abreve" unicode="&#x103;" horiz-adv-x="343" 
d="M46 420c0 47 50 85 110 85c66 0 130 -38 130 -135v-310c0 -19 9 -34 20 -34s20 15 20 34h10c0 -36 -29 -65 -65 -65c-29 0 -53 18 -62 43c-9 -21 -29 -43 -70 -43c-58 0 -113 45 -113 105v34c0 56 72 105 72 105l108 73v98c0 59 -17 85 -50 85c-25 0 -54 -10 -69 -30
c29 0 49 -20 49 -45s-20 -45 -45 -45s-45 20 -45 45zM206 61v237l-72 -50c-21 -14 -28 -47 -28 -114v-74c0 -22 8 -55 40 -55c25 0 57 22 60 56zM284 656c0 -62 -51 -113 -113 -113s-113 51 -113 113h10c0 -35 46 -53 103 -53s103 18 103 53h10z" />
    <glyph glyph-name="R.alt" horiz-adv-x="415" 
d="M297 10l-107 330h-40v-330h40v-10h-160v10h40v680h-40v10h160c108 0 180 -72 180 -160v-40c0 -65 -40 -122 -104 -147l111 -343h40v-10h-157v10h37zM150 350h40c55 0 100 67 100 150v40c0 83 -45 150 -100 150h-40v-340z" />
    <glyph glyph-name="t" unicode="t" horiz-adv-x="207" 
d="M179 60h10c0 -36 -29 -65 -65 -65s-65 29 -65 65v430h-50v10h50v67l80 53v-120h60v-10h-60v-430c0 -19 9 -34 20 -34s20 15 20 34z" />
    <glyph glyph-name="Q.alt" 
d="M169 -68v63c-72 17 -120 80 -120 155v400c0 88 67 160 160 160s160 -72 160 -160v-400c0 -75 -49 -138 -120 -155v-53h40v-10h-120zM289 150v400c0 83 -30 150 -80 150s-80 -67 -80 -150v-400c0 -83 30 -150 80 -150s80 67 80 150z" />
    </font>
</defs>
</svg>
